<svg width="28" height="28" viewBox="0 0 28 28" fill="none" xmlns="http://www.w3.org/2000/svg">
<g clip-path="url(#clip0_569_6104)">
<path d="M24.3032 18.1389C24.108 18.6213 23.88 19.0877 23.6224 19.5341C23.2104 20.2469 22.7208 20.9117 22.1656 21.5125C21.9032 21.7989 21.6256 22.0693 21.3352 22.3245C21.2416 22.4069 21.1456 22.4861 21.0496 22.5653L20.9296 22.3245L20.232 20.9293L19.5344 19.5341L18.8368 18.1389L18.1392 16.7437L17.4416 15.3485L16.744 13.9533L16.0464 12.5581L15.3488 11.1629L14.6512 9.76769L13.9536 8.37249L13.256 9.76769L12.5584 11.1629L13.256 12.5581L13.9536 13.9533L14.6512 15.3485L15.3488 16.7437L16.0464 18.1389L16.744 19.5341L17.4416 20.9293L18.1392 22.3245L18.8368 23.7197L18.9456 23.9365C18.5744 24.1221 18.1912 24.2869 17.7976 24.4317L17.4416 23.7197L16.744 22.3245L16.0464 20.9293L15.3488 19.5341L14.6512 18.1389L13.9536 16.7437L13.256 15.3485L12.5584 13.9533L11.8608 12.5581L11.1632 13.9533L10.4656 15.3485L11.1632 16.7437L11.8608 18.1389L12.5584 19.5341L13.256 20.9293L13.9536 22.3245L14.6512 23.7197L15.3064 25.0301C14.8624 25.0837 14.4112 25.1141 13.9528 25.1141L13.2552 23.7197L12.5576 22.3245L11.86 20.9293L11.1624 19.5341L10.4648 18.1389L9.7672 16.7437L9.0696 18.1389L8.372 19.5341L9.0696 20.9293L9.7672 22.3245L10.4648 23.7197L10.9584 24.7069C9.3112 24.2493 7.8168 23.4245 6.5704 22.3245C6.28 22.0693 6.0024 21.7981 5.74 21.5125C5.1848 20.9109 4.6952 20.2469 4.2832 19.5341C3.784 18.6701 3.396 17.7325 3.1416 16.7437C2.9112 15.8517 2.7896 14.9173 2.7896 13.9533C2.7896 12.9893 2.9112 12.0541 3.1416 11.1629C3.3968 10.1725 3.7832 9.23569 4.284 8.37249C4.8912 7.32209 5.6656 6.37889 6.5696 5.58209C7.5512 4.71649 8.6872 4.02449 9.9288 3.54529L13.952 8.37329L17.9736 3.54529C19.2152 4.02449 20.3512 4.71649 21.3328 5.58209C22.2368 6.37889 23.0112 7.32209 23.6184 8.37249C23.8776 8.81889 24.1048 9.28529 24.3008 9.76769H27.2648C27.1152 9.29089 26.9408 8.82529 26.7416 8.37249C26.308 7.37649 25.7592 6.43969 25.1136 5.58209C24.3208 4.52609 23.3808 3.58449 22.3232 2.79169C21.2208 1.96289 19.9936 1.29409 18.672 0.820488C17.1992 0.289288 15.6088 0.000488281 13.9528 0.000488281C13.4936 0.000488281 13.04 0.0244883 12.5912 0.0684883C12.5672 0.0708883 12.544 0.0740883 12.52 0.0764883C11.3776 0.193288 10.2752 0.444488 9.232 0.819688C7.9104 1.29409 6.6832 1.96209 5.5808 2.79089C4.5248 3.58369 3.5824 4.52529 2.7904 5.58129C2.1448 6.43969 1.596 7.37569 1.1624 8.37169C0.7728 9.25729 0.476 10.1909 0.2792 11.1621C0.0968 12.0637 0 12.9965 0 13.9525C0 14.9085 0.096 15.8413 0.2792 16.7429C0.476 17.7141 0.7728 18.6477 1.1624 19.5333C1.596 20.5293 2.1448 21.4661 2.7904 22.3237C3.2232 22.9013 3.7016 23.4437 4.2176 23.9461C4.6464 24.3645 5.1008 24.7549 5.5808 25.1141C7.912 26.8669 10.812 27.9045 13.952 27.9045C17.092 27.9045 19.992 26.8661 22.3232 25.1141C22.8032 24.7557 23.2584 24.3645 23.6864 23.9461C24.2024 23.4437 24.6816 22.9013 25.1136 22.3237C25.76 21.4653 26.308 20.5293 26.7416 19.5333C26.9408 19.0805 27.1152 18.6149 27.2648 18.1381H24.3016L24.3032 18.1389Z" fill="#DBFF6D"/>
</g>
<defs>
<clipPath id="clip0_569_6104">
<rect width="27.2664" height="27.9048" fill="white"/>
</clipPath>
</defs>
</svg>
