<svg width="8" height="8" viewBox="0 0 8 8" fill="none" xmlns="http://www.w3.org/2000/svg">
<path d="M7.85352 0.499999C7.85352 0.223857 7.62966 -8.18031e-07 7.35352 -9.44471e-07L2.85352 -5.44076e-07C2.57737 -7.12663e-07 2.35352 0.223857 2.35352 0.499999C2.35352 0.776142 2.57737 0.999999 2.85352 0.999999L6.85352 0.999999L6.85352 5C6.85352 5.27614 7.07737 5.5 7.35352 5.5C7.62966 5.5 7.85352 5.27614 7.85352 5L7.85352 0.499999ZM0.353516 7.5L0.707069 7.85355L7.70707 0.853553L7.35352 0.499999L6.99996 0.146446L-3.77595e-05 7.14645L0.353516 7.5Z" fill="black"/>
</svg>
