<svg width="40" height="40" viewBox="0 0 40 40" fill="none" xmlns="http://www.w3.org/2000/svg">
<path d="M5.9125 19.85C6.15 19.2188 6.05625 18.5 5.65625 17.9563C4.6 16.525 4 14.8188 4 13C4 8.1875 8.3125 4 14 4C19.6875 4 24 8.1875 24 13C24 17.8125 19.6875 22 14 22C12.875 22 11.8 21.8312 10.8 21.5312C10.375 21.4 9.91875 21.4188 9.50625 21.575L4.5375 23.4688L5.9125 19.8563V19.85ZM2 13C2 15.275 2.75 17.3875 4.04375 19.1375L2.08125 24.2812C2.025 24.425 2 24.575 2 24.7313C2 25.4313 2.56875 26 3.26875 26C3.425 26 3.575 25.9688 3.71875 25.9188L10.2188 23.4438C11.4062 23.8062 12.6813 24 14.0063 24C20.6313 24 26.0063 19.075 26.0063 13C26.0063 6.925 20.625 2 14 2C7.375 2 2 6.925 2 13ZM26 36C27.325 36 28.5938 35.8062 29.7875 35.4437L36.2875 37.9188C36.4312 37.975 36.5875 38 36.7375 38C37.4375 38 38.0062 37.4313 38.0062 36.7313C38.0062 36.575 37.975 36.425 37.925 36.2812L35.9688 31.1375C37.2562 29.3813 38.0125 27.2687 38.0125 25C38.0125 19.85 34.1562 15.5312 28.95 14.3313C28.8813 15.0063 28.7688 15.6625 28.6 16.3C32.9625 17.3438 36.0125 20.95 36.0125 25C36.0125 26.8188 35.4125 28.525 34.3563 29.9562C33.9563 30.5062 33.8562 31.2188 34.1 31.85L35.475 35.4625L30.5063 33.5688C30.0938 33.4125 29.6375 33.3937 29.2125 33.525C28.2125 33.8312 27.1375 33.9937 26.0125 33.9937C21.0688 33.9937 17.1625 30.825 16.225 26.8375C15.5625 26.9312 14.8875 26.9812 14.2063 26.9875C15.2312 32.1062 20.125 35.9875 26.0063 35.9875L26 36Z" fill="#00382F"/>
</svg>
