<svg width="40" height="40" viewBox="0 0 40 40" fill="none" xmlns="http://www.w3.org/2000/svg">
<path d="M23.2812 7.66875L21.1187 12H26C27.6562 12 29 10.6562 29 9C29 7.34375 27.65 6 25.9875 6C24.8438 6 23.7938 6.65 23.2812 7.66875ZM14 14H7C6.45 14 6 14.45 6 15V17C6 17.55 6.45 18 7 18H33C33.55 18 34 17.55 34 17V15C34 14.45 33.55 14 33 14H14ZM7 12H10C9.375 11.1625 9 10.125 9 9C9 6.2375 11.25 4 14.0125 4C15.9125 4 17.6562 5.075 18.5063 6.775L20 9.7625L21.4937 6.775C22.3438 5.075 24.0875 4 25.9875 4C28.7437 4 31 6.2375 31 9C31 10.125 30.625 11.1625 30 12H33C34.6562 12 36 13.3438 36 15V17C36 18.3062 35.1625 19.4187 34 19.8313V30C34 32.2062 32.2062 34 30 34H10C7.79375 34 6 32.2062 6 30V19.8313C4.8375 19.4187 4 18.3062 4 17V15C4 13.3438 5.34375 12 7 12ZM18.8813 12L16.7188 7.66875C16.2063 6.65 15.1562 6 14.0125 6C12.35 6 11 7.34375 11 9C11 10.6562 12.3438 12 14 12H18.8813ZM8 30C8 31.1063 8.89375 32 10 32H19V20H8V30ZM21 32H30C31.1063 32 32 31.1063 32 30V20H21V32Z" fill="#73A955"/>
</svg>
