<svg width="50" height="30" viewBox="0 0 50 30" fill="none" xmlns="http://www.w3.org/2000/svg">
<rect x="24.0271" y="2.39971" width="24.4142" height="24.4142" rx="12.2071" fill="#4EA9F6" stroke="#25272C" stroke-width="1.6"/>
<path d="M38.4525 8.56553C38.4803 8.53374 38.5189 8.51514 38.5611 8.51617C38.8335 8.52281 39.9304 8.59193 41.2493 9.25143C42.0772 9.66542 42.6792 10.4068 43.031 11.263C43.5015 12.408 44.1205 14.2371 44.3616 16.3844C44.4927 17.5523 44.1669 18.7746 43.182 19.4158C42.559 19.8213 41.6886 20.1933 40.5273 20.29C40.3009 20.3088 40.0819 20.209 39.9373 20.0338C39.8756 19.9589 39.8046 19.8726 39.7284 19.7794C39.4939 19.4924 39.6339 19.0599 39.9733 18.911C40.1351 18.84 40.2847 18.7648 40.4226 18.6875C40.8021 18.4748 40.5748 18.1796 40.167 18.3311C39.4651 18.6258 38.7907 18.8223 38.1309 18.9346C36.783 19.1872 35.5472 19.1175 34.4941 18.9209C33.6939 18.7665 33.0063 18.541 32.4307 18.3164C32.1077 18.19 31.7563 18.0355 31.4053 17.8389C31.3632 17.8108 31.3204 17.7976 31.2783 17.7695C31.2566 17.7586 31.2435 17.7472 31.2321 17.7361C31.2258 17.7298 31.2086 17.7187 31.2008 17.7144C31.1107 17.6639 31.0352 17.762 31.1051 17.8381C31.3755 18.1325 31.8575 18.558 32.6071 18.8936C32.9245 19.0358 33.0527 19.4413 32.834 19.7117C32.7423 19.8251 32.6564 19.9307 32.583 20.0207C32.4336 20.2039 32.206 20.3088 31.9704 20.2887C30.8059 20.1891 29.9373 19.8123 29.3186 19.4039C28.3525 18.7661 28.0354 17.5625 28.1627 16.4118C28.4032 14.2375 29.0326 12.3871 29.5063 11.239C29.8526 10.3994 30.4434 9.67238 31.2542 9.26337C32.6098 8.57963 33.7355 8.52034 33.9814 8.51585C34.0131 8.51527 34.0429 8.5296 34.0633 8.55396C34.1144 8.615 34.0852 8.70869 34.009 8.73172C32.7159 9.12251 31.7953 9.60856 31.219 9.9758C31.0997 10.0518 31.1781 10.1753 31.3066 10.1162C32.8089 9.45635 34.0025 9.27361 34.4941 9.23145C34.5784 9.2174 34.6491 9.20312 34.7334 9.20312C35.5898 9.09083 36.5585 9.06349 37.5693 9.17578C37.9456 9.21935 38.3298 9.2819 38.7201 9.36721C39.2053 9.47324 39.3873 9.11515 38.9201 8.94666C38.7916 8.90031 38.6586 8.85466 38.5211 8.81001C38.4175 8.77636 38.3808 8.64756 38.4525 8.56553ZM33.6377 13.7529C32.8373 13.7529 32.2051 14.455 32.2051 15.3115C32.2051 16.1681 32.8513 16.8701 33.6377 16.8701C34.4379 16.8699 35.0693 16.168 35.0693 15.3115C35.0833 14.4551 34.4379 13.7531 33.6377 13.7529ZM38.7627 13.7529C37.9624 13.753 37.3301 14.455 37.3301 15.3115C37.3301 16.1681 37.9764 16.8701 38.7627 16.8701C39.5631 16.8701 40.1953 16.1681 40.1953 15.3115C40.1953 14.455 39.5631 13.7529 38.7627 13.7529Z" fill="#EBEBED"/>
<rect x="13.2117" y="1.59893" width="26.0142" height="26.0142" rx="13.0071" fill="#767F8C" stroke="#25272C" stroke-width="1.6"/>
<path d="M28.5899 8.13923C28.6197 8.10528 28.6614 8.08544 28.7066 8.08655C28.9992 8.09375 30.173 8.1682 31.584 8.87412C32.469 9.31688 33.1125 10.1093 33.4888 11.0246C33.9931 12.2511 34.6572 14.2123 34.9148 16.5147C35.0541 17.7597 34.7073 19.0613 33.6586 19.7465C32.9915 20.1824 32.0578 20.5831 30.8105 20.6869C30.5681 20.7071 30.3338 20.6003 30.1789 20.4127C30.1127 20.3325 30.0365 20.2398 29.9548 20.1398C29.7039 19.8329 29.8536 19.3704 30.2166 19.2112C30.3901 19.1351 30.5505 19.0544 30.6984 18.9715C31.1042 18.744 30.8609 18.4279 30.4248 18.5898C29.6736 18.9053 28.9522 19.1161 28.2461 19.2363C26.8036 19.5068 25.4805 19.4311 24.3535 19.2207C23.4972 19.0554 22.7605 18.8156 22.1445 18.5752C21.799 18.44 21.4234 18.2738 21.0479 18.0635C21.0029 18.0336 20.9581 18.0183 20.9131 17.9883C20.8897 17.9766 20.8751 17.965 20.8628 17.9533C20.8559 17.9468 20.8376 17.935 20.8293 17.9304C20.7333 17.8766 20.6526 17.9817 20.7271 18.0627C21.0168 18.3779 21.5334 18.8337 22.3371 19.1929C22.6753 19.3441 22.8119 19.776 22.5792 20.0642C22.4804 20.1866 22.3878 20.3008 22.3087 20.398C22.1488 20.5945 21.9048 20.7071 21.6524 20.6855C20.4032 20.5786 19.4722 20.1735 18.8099 19.7351C17.7798 19.0533 17.4418 17.7696 17.5773 16.5418C17.8348 14.2085 18.5111 12.2234 19.0187 10.9943C19.3882 10.0998 20.0177 9.32562 20.8814 8.88909C22.3336 8.15519 23.5404 8.09111 23.8046 8.08619C23.8389 8.08556 23.871 8.10106 23.8929 8.12739C23.9475 8.19303 23.9161 8.29344 23.8344 8.31815C22.451 8.73622 21.4659 9.25605 20.8491 9.64886C20.7228 9.72931 20.8063 9.86136 20.9424 9.79883C22.5497 9.09287 23.8273 8.89769 24.3535 8.85254C24.4436 8.83753 24.5193 8.82227 24.6094 8.82227C25.5259 8.70209 26.5628 8.67183 27.6445 8.79199C28.0471 8.83861 28.458 8.90553 28.8757 8.9968C29.3936 9.10999 29.5882 8.72689 29.0895 8.54702C28.9522 8.49749 28.81 8.44871 28.6631 8.40099C28.5521 8.36495 28.5129 8.22691 28.5899 8.13923ZM23.4385 13.6924C22.5822 13.6924 21.9057 14.4441 21.9053 15.3604C21.9053 16.277 22.597 17.0283 23.4385 17.0283C24.2948 17.0281 24.9707 16.2768 24.9707 15.3604C24.9853 14.4442 24.2946 13.6926 23.4385 13.6924ZM28.9229 13.6924C28.0667 13.6925 27.391 14.4441 27.3906 15.3604C27.3906 16.2769 28.0814 17.0282 28.9229 17.0283C29.7793 17.0282 30.4561 16.2769 30.4561 15.3604C30.4557 14.4441 29.779 13.6925 28.9229 13.6924Z" fill="#EBEBED"/>
<rect x="0.799609" y="0.800098" width="27.6142" height="27.6142" rx="13.8071" fill="#ED5B61" stroke="#25272C" stroke-width="1.6"/>
<path d="M17.1357 7.71552C17.1674 7.67932 17.212 7.65816 17.2602 7.65936C17.5727 7.66711 18.823 7.74676 20.3259 8.49875C21.2687 8.97048 21.9543 9.81481 22.3552 10.7898C22.892 12.0957 23.5989 14.183 23.8738 16.6336C24.0231 17.9641 23.6521 19.3561 22.5304 20.0871C21.8199 20.5501 20.8269 20.975 19.5016 21.0854C19.2434 21.1069 18.9939 20.9932 18.829 20.7934C18.7579 20.7073 18.676 20.6077 18.5882 20.5003C18.3221 20.1746 18.4809 19.6839 18.8662 19.5151C19.0523 19.4335 19.2243 19.3471 19.3828 19.2582C19.8133 19.0168 19.5535 18.6792 19.0908 18.8511C18.2905 19.1872 17.5218 19.4114 16.7695 19.5396C15.2326 19.8277 13.8228 19.748 12.6221 19.5239C11.7096 19.3478 10.9249 19.0906 10.2686 18.8345C9.90044 18.6904 9.49973 18.5146 9.09961 18.2905C9.05171 18.2586 9.00298 18.2423 8.95508 18.2104C8.9306 18.1982 8.91536 18.1856 8.90236 18.1732C8.89512 18.1663 8.87662 18.1543 8.86787 18.1494C8.76618 18.0924 8.67946 18.2036 8.75829 18.2894C9.06755 18.6263 9.61925 19.1131 10.4778 19.4962C10.8361 19.656 10.9807 20.1134 10.7342 20.4186C10.6276 20.5505 10.5277 20.6735 10.4425 20.778C10.2721 20.9872 10.0124 21.1069 9.74362 21.0839C8.41706 20.9703 7.42727 20.5412 6.72197 20.0759C5.619 19.3481 5.25696 17.9739 5.40244 16.6605C5.67743 14.1781 6.39694 12.0661 6.93724 10.7579C7.33093 9.80468 8.00173 8.97965 8.9222 8.51444C10.4695 7.73244 11.7551 7.66419 12.0365 7.65896C12.073 7.65829 12.1072 7.67479 12.1305 7.70283C12.1887 7.77273 12.1552 7.87967 12.0681 7.90598C10.594 8.35147 9.54456 8.90547 8.88759 9.32412C8.75192 9.41057 8.84111 9.55106 8.9873 9.48389C10.7004 8.73143 12.0617 8.52313 12.6221 8.4751C12.718 8.45911 12.7986 8.44287 12.8945 8.44287C13.8711 8.31485 14.9763 8.28356 16.1289 8.41162C16.5602 8.46159 17.0006 8.53345 17.4482 8.63157C18.0054 8.75373 18.2125 8.34665 17.6761 8.15278C17.5272 8.09898 17.373 8.046 17.2135 7.9942C17.0954 7.95582 17.0537 7.80887 17.1357 7.71552ZM11.6445 13.6323C10.7322 13.6326 10.0119 14.4323 10.0117 15.4087C10.0118 16.3852 10.7481 17.1858 11.6445 17.186C12.5569 17.1858 13.2782 16.3851 13.2783 15.4087C13.2941 14.4323 12.5569 13.6326 11.6445 13.6323ZM17.4893 13.6323C16.5767 13.6323 15.8567 14.4322 15.8564 15.4087C15.8566 16.3853 16.5927 17.186 17.4893 17.186C18.4016 17.1858 19.1219 16.3851 19.1221 15.4087C19.1218 14.4324 18.4016 13.6326 17.4893 13.6323Z" fill="#EBEBED"/>
</svg>
