<svg width="12" height="9" viewBox="0 0 12 9" fill="none" xmlns="http://www.w3.org/2000/svg">
<path d="M1.154 0.15675L0 1.31075V3.68975L1.154 4.84375C1.363 5.05275 1.702 5.05275 1.911 4.84375L3.876 2.87875C4.085 2.66975 4.085 2.33075 3.876 2.12175L1.911 0.15675C1.702 -0.05225 1.363 -0.05225 1.154 0.15675Z" fill="#799088"/>
<path d="M3.35304 7.04184L4.50704 8.19584H6.88604L8.04004 7.04184C8.24904 6.83284 8.24904 6.49384 8.04004 6.28484L6.07504 4.31984C5.86604 4.11084 5.52704 4.11084 5.31804 4.31984L3.35304 6.28484C3.14404 6.49384 3.14404 6.83284 3.35304 7.04184Z" fill="#799088"/>
<path d="M10.2391 4.84375L11.3931 3.68975V1.31075L10.2391 0.15675C10.0301 -0.05225 9.6911 -0.05225 9.4821 0.15675L7.5171 2.12175C7.3081 2.33075 7.3081 2.66975 7.5171 2.87875L9.4821 4.84375C9.6911 5.05275 10.0301 5.05275 10.2391 4.84375Z" fill="#799088"/>
</svg>
