<svg width="9" height="12" viewBox="0 0 9 12" fill="none" xmlns="http://www.w3.org/2000/svg">
<path d="M0.15675 10.2381L1.31075 11.3921H3.68975L4.84375 10.2381C5.05275 10.0291 5.05275 9.69012 4.84375 9.48112L2.87875 7.51612C2.66975 7.30712 2.33075 7.30712 2.12175 7.51612L0.15675 9.48112C-0.05225 9.69012 -0.05225 10.0291 0.15675 10.2381Z" fill="#799088"/>
<path d="M4.84375 1.154L3.68975 0H1.31075L0.15675 1.154C-0.05225 1.363 -0.05225 1.702 0.15675 1.911L2.12175 3.876C2.33075 4.085 2.66975 4.085 2.87875 3.876L4.84375 1.911C5.05275 1.702 5.05275 1.363 4.84375 1.154Z" fill="#799088"/>
<path d="M7.04281 8.04004L8.19681 6.88604V4.50704L7.04281 3.35304C6.83381 3.14404 6.49481 3.14404 6.28581 3.35304L4.32081 5.31804C4.11181 5.52704 4.11181 5.86604 4.32081 6.07504L6.28581 8.04004C6.49481 8.24904 6.83381 8.24904 7.04281 8.04004Z" fill="#799088"/>
</svg>
