<svg width="201" height="33" viewBox="0 0 201 33" fill="none" xmlns="http://www.w3.org/2000/svg">
<g clip-path="url(#clip0_569_2083)">
<path d="M31.7499 12.828C31.5238 11.712 31.1818 10.6388 30.7351 9.62066C30.2368 8.47541 29.6068 7.39991 28.8631 6.41328C27.9519 5.19941 26.8719 4.11716 25.6558 3.20591C24.389 2.25304 22.9783 1.48579 21.4595 0.94016C19.7664 0.33041 17.9383 -0.00146484 16.0348 -0.00146484C15.5071 -0.00146484 14.9851 0.0266602 14.4699 0.0761602C14.4429 0.0784102 14.4159 0.0829102 14.3878 0.0851602C13.0749 0.219035 11.8081 0.50816 10.6089 0.939035C9.09015 1.48466 7.6794 2.25191 6.41265 3.20479C5.19877 4.11603 4.11652 5.19828 3.20527 6.41216C2.46277 7.39878 1.83277 8.47429 1.3344 9.61954C0.886648 10.6377 0.545773 11.7109 0.319648 12.8269C0.109273 13.863 -0.000976562 14.9352 -0.000976562 16.0343C-0.000976562 17.1334 0.109273 18.2055 0.319648 19.2417C0.545773 20.3577 0.887773 21.4309 1.3344 22.449C1.83277 23.5943 2.46277 24.6698 3.20527 25.6564C3.70252 26.3202 4.25265 26.9434 4.84552 27.5217C5.33827 28.0032 5.86027 28.452 6.41265 28.8638C9.0924 30.8775 12.4246 32.0712 16.0336 32.0712C19.6426 32.0712 22.9749 30.8787 25.6546 28.8638C26.2059 28.452 26.729 28.002 27.2206 27.5217C27.8135 26.9445 28.3636 26.3202 28.8609 25.6564C29.6034 24.6698 30.2334 23.5943 30.7329 22.449C31.1806 21.4309 31.5215 20.3577 31.7477 19.2417C31.958 18.2055 32.0683 17.1334 32.0683 16.0343C32.0683 14.9352 31.958 13.863 31.7477 12.8269M28.4593 19.2417C28.1679 20.3779 27.7213 21.4557 27.1475 22.449C26.6739 23.268 26.1114 24.0319 25.4735 24.7227C25.172 25.0512 24.8525 25.3628 24.5195 25.6564C24.4126 25.7509 24.3024 25.842 24.1921 25.9332L24.0538 25.6564L23.2516 24.0533L22.4495 22.4502L21.6474 20.847L20.8453 19.2439L20.0431 17.6408L19.241 16.0377L18.4389 14.4345L17.6368 12.8314L16.8346 11.2283L16.0325 9.62516L15.2304 11.2283L14.4283 12.8314L15.2304 14.4345L16.0325 16.0377L16.8346 17.6408L17.6368 19.2439L18.4389 20.847L19.241 22.4502L20.0431 24.0533L20.8453 25.6564L21.6474 27.2595L21.7723 27.5093C21.3459 27.723 20.9049 27.912 20.4538 28.0785L20.0443 27.2607L19.2421 25.6575L18.44 24.0544L17.6379 22.4513L16.8358 20.8482L16.0336 19.245L15.2315 17.6419L14.4294 16.0388L13.6273 14.4357L12.8251 16.0388L12.023 17.6419L12.8251 19.245L13.6273 20.8482L14.4294 22.4513L15.2315 24.0544L16.0336 25.6575L16.8358 27.2607L17.5884 28.767C17.0788 28.8289 16.5601 28.8638 16.0336 28.8638L15.2326 27.2607L14.4305 25.6575L13.6284 24.0544L12.8263 22.4513L12.0241 20.8482L11.222 19.245L10.4199 20.8482L9.61777 22.4513L10.4199 24.0544L11.222 25.6575L12.0241 27.2607L12.5911 28.3947C10.6978 27.8682 8.9799 26.9209 7.54777 25.6564C7.21477 25.3628 6.89527 25.0512 6.59377 24.7227C5.9559 24.0319 5.39227 23.268 4.91977 22.449C4.34602 21.4568 3.8994 20.379 3.60802 19.2417C3.34365 18.2168 3.20415 17.1424 3.20415 16.0343C3.20415 14.9262 3.34365 13.8518 3.60802 12.8269C3.90165 11.6884 4.34602 10.6118 4.9209 9.61954C5.6184 8.41241 6.50827 7.32791 7.54777 6.41216C8.67502 5.41766 9.98227 4.62228 11.4088 4.07103L16.0325 9.61954L20.6551 4.07103C22.0816 4.62228 23.3878 5.41766 24.5161 6.41216C25.5556 7.32791 26.4455 8.41129 27.143 9.61954C27.719 10.6118 28.1634 11.6884 28.4559 12.8269C28.7203 13.8518 28.8598 14.9262 28.8598 16.0343C28.8598 17.1424 28.7203 18.2168 28.4559 19.2417" fill="white"/>
<path d="M40.0883 16.1414C40.0883 14.1445 40.4528 12.412 41.1807 10.9427C41.9086 9.47462 42.9425 8.34063 44.2823 7.54188C45.6211 6.74313 47.2186 6.34375 49.0748 6.34375C51.3766 6.34375 53.1811 6.90738 54.485 8.03575C55.7888 9.163 56.5932 10.738 56.8992 12.7585L52.6343 13.3221C52.4465 12.2882 52.0876 11.4659 51.5588 10.855C51.0301 10.2441 50.1897 9.93812 49.0388 9.93812C47.465 9.93812 46.3422 10.5085 45.6728 11.647C45.0035 12.7866 44.6682 14.2491 44.6682 16.0345C44.6682 17.8199 44.9967 19.2948 45.6548 20.458C46.313 21.6213 47.4402 22.2029 49.0377 22.2029C50.2122 22.2029 51.0998 21.8856 51.6983 21.2511C52.298 20.6166 52.6793 19.7594 52.8436 18.6782H57.1433C56.861 20.9102 56.033 22.6551 54.6582 23.9118C53.2835 25.1695 51.3743 25.7972 48.9308 25.7972C46.088 25.7972 43.9032 24.9333 42.3755 23.2064C40.8477 21.4795 40.085 19.1237 40.085 16.1403" fill="white"/>
<path d="M58.1816 16.1054C58.1816 14.0849 58.5574 12.3468 59.31 10.8899C60.0615 9.433 61.1246 8.31137 62.4994 7.52387C63.8741 6.7375 65.5009 6.34375 67.3808 6.34375C70.2473 6.34375 72.4793 7.19537 74.0768 8.89862C75.6743 10.603 76.473 12.9576 76.473 15.9648C76.473 18.9719 75.6563 21.4221 74.0239 23.1715C72.3904 24.922 70.1415 25.7972 67.275 25.7972C64.4085 25.7972 62.1473 24.9456 60.561 23.2424C58.9748 21.5391 58.1816 19.1597 58.1816 16.1054ZM62.7638 16.0356C62.7638 17.8919 63.1215 19.3836 63.8393 20.5109C64.5559 21.6381 65.7124 22.2029 67.311 22.2029C68.9096 22.2029 70.0718 21.6393 70.7996 20.5109C71.5275 19.3836 71.892 17.8919 71.892 16.0356C71.892 14.1794 71.5275 12.7 70.7996 11.5953C70.0706 10.4916 68.9085 9.93925 67.311 9.93925C65.7135 9.93925 64.5851 10.4916 63.8573 11.5953C63.1283 12.7 62.7649 14.1805 62.7649 16.0356" fill="white"/>
<path d="M77.8828 0H82.3592V3.9825H77.8828V0ZM77.9177 6.9075H82.3581V25.2337H77.9177V6.9075Z" fill="white"/>
<path d="M84.4727 6.90738H88.8073V9.44537C89.7242 8.2945 90.6872 7.489 91.6974 7.03113C92.7077 6.57325 93.7528 6.34375 94.8339 6.34375C96.8544 6.34375 98.381 6.91413 99.4149 8.05263C100.449 9.19225 100.965 10.8314 100.965 12.9689V25.2336H96.5248V13.8149C96.5248 12.4525 96.2717 11.4839 95.7677 10.9079C95.2625 10.333 94.493 10.0439 93.4592 10.0439C92.8719 10.0439 92.3015 10.1496 91.7503 10.3611C91.1979 10.5726 90.6984 10.9023 90.2529 11.3478C89.8063 11.7471 89.471 12.1758 89.2483 12.6336C89.0244 13.0915 88.913 13.6967 88.913 14.4482V25.2325H84.4727V6.90738Z" fill="white"/>
<path d="M103.062 6.90738H107.397V9.23388C108.83 7.30788 110.756 6.34375 113.177 6.34375C115.598 6.34375 117.618 7.21338 118.887 8.9515C120.156 10.6908 120.79 13.0049 120.79 15.895C120.79 17.9155 120.467 19.6716 119.822 21.1634C119.175 22.6551 118.265 23.8015 117.09 24.5991C115.915 25.3979 114.505 25.7973 112.861 25.7973C111.851 25.7973 110.881 25.597 109.954 25.1976C109.026 24.7983 108.209 24.1401 107.505 23.2244V32.0703H103.065V6.90738H103.062ZM116.243 15.9996C116.243 14.4966 116.049 13.303 115.661 12.4221C115.273 11.5413 114.762 10.9068 114.128 10.5186C113.493 10.1305 112.8 9.937 112.049 9.937C110.521 9.937 109.376 10.4545 108.613 11.4873C107.849 12.5211 107.468 13.8486 107.468 15.4697V16.4924C107.468 18.2541 107.826 19.6469 108.542 20.6684C109.259 21.691 110.369 22.2018 111.872 22.2018C113.164 22.2018 114.216 21.7259 115.027 20.7741C115.837 19.8224 116.243 18.2316 116.243 15.9985" fill="white"/>
<path d="M122.022 16.1054C122.022 14.0849 122.398 12.3468 123.151 10.8899C123.902 9.433 124.965 8.31137 126.34 7.52387C127.715 6.7375 129.342 6.34375 131.222 6.34375C134.088 6.34375 136.32 7.19537 137.918 8.89862C139.515 10.603 140.314 12.9576 140.314 15.9648C140.314 18.9719 139.497 21.4221 137.865 23.1715C136.231 24.922 133.982 25.7972 131.116 25.7972C128.249 25.7972 125.988 24.9456 124.402 23.2424C122.816 21.5391 122.022 19.1597 122.022 16.1054ZM126.605 16.0356C126.605 17.8919 126.962 19.3836 127.68 20.5109C128.397 21.6381 129.553 22.2029 131.152 22.2029C132.75 22.2029 133.913 21.6393 134.64 20.5109C135.368 19.3836 135.733 17.8919 135.733 16.0356C135.733 14.1794 135.368 12.7 134.64 11.5953C133.911 10.4916 132.749 9.93925 131.152 9.93925C129.554 9.93925 128.426 10.4916 127.698 11.5953C126.969 12.7 126.606 14.1805 126.606 16.0356" fill="white"/>
<path d="M142.076 6.90758H146.411V9.48046C147.773 7.55446 149.524 6.59033 151.662 6.59033C151.991 6.59033 152.302 6.60271 152.596 6.62521C152.89 6.64883 153.154 6.68371 153.389 6.73096L152.86 10.6426C152.343 10.502 151.791 10.4311 151.204 10.4311C150.618 10.4311 150.059 10.5188 149.53 10.6955C149.002 10.8721 148.502 11.1601 148.033 11.5595C147.563 11.9352 147.193 12.3942 146.923 12.9342C146.653 13.4753 146.518 14.1211 146.518 14.8726V25.2338H142.077V6.90758H142.076Z" fill="white"/>
<path d="M153.241 20.1587C153.241 18.9606 153.493 17.9616 153.999 17.1629C154.505 16.3641 155.192 15.7353 156.062 15.2774C156.93 14.8195 157.923 14.491 159.039 14.2907C160.155 14.0916 161.324 13.9679 162.546 13.9206L165.365 13.8149V13.1455C165.365 11.8765 165.095 10.9551 164.554 10.3791C164.013 9.80425 163.145 9.51513 161.946 9.51513C160.748 9.51513 159.902 9.721 159.339 10.1316C158.775 10.5434 158.398 11.125 158.21 11.8765L154.228 11.5244C154.556 9.739 155.379 8.4295 156.695 7.59475C158.01 6.76113 159.808 6.34375 162.087 6.34375C164.813 6.34375 166.75 6.96025 167.902 8.19437C169.053 9.4285 169.629 11.2083 169.629 13.5336V25.2336H165.506V22.978C164.802 23.7767 163.967 24.4292 163.004 24.9344C162.04 25.4395 160.878 25.6926 159.515 25.6926C157.659 25.6926 156.149 25.2167 154.986 24.265C153.823 23.3132 153.241 21.9452 153.241 20.1587ZM157.541 19.9472C157.541 20.6999 157.775 21.304 158.246 21.7619C158.717 22.2198 159.479 22.4492 160.537 22.4492C161.994 22.4492 163.163 22.0735 164.043 21.322C164.924 20.5705 165.365 19.513 165.365 18.1506V16.6004L162.758 16.7061C160.761 16.777 159.392 17.0819 158.652 17.623C157.912 18.1641 157.542 18.9392 157.542 19.9495" fill="white"/>
<path d="M173.412 18.8898V10.396H170.521V6.90739H173.412V1.97314H177.852V6.90739H182.398V10.396H177.852V19.3476C177.852 20.17 178.04 20.8158 178.416 21.286C178.791 21.7563 179.367 21.9903 180.142 21.9903C180.589 21.9903 180.988 21.9554 181.341 21.8845C181.693 21.8136 182.021 21.7315 182.327 21.6381L182.997 24.9513C182.409 25.1391 181.804 25.291 181.182 25.4091C180.56 25.5261 179.849 25.5858 179.05 25.5858C177.593 25.5858 176.454 25.3214 175.631 24.7926C174.809 24.2639 174.233 23.5011 173.904 22.5021C173.575 21.5031 173.41 20.2994 173.41 18.8898" fill="white"/>
<path d="M183.103 16.2111C183.103 14.0961 183.478 12.3051 184.23 10.837C184.981 9.36888 186.028 8.25288 187.366 7.489C188.705 6.72625 190.256 6.34375 192.018 6.34375C193.922 6.34375 195.496 6.72625 196.741 7.489C197.986 8.25288 198.913 9.316 199.525 10.6784C200.136 12.0408 200.442 13.627 200.442 15.436V17.092H187.473C187.567 18.8537 187.99 20.1936 188.742 21.1094C189.494 22.0251 190.586 22.4841 192.019 22.4841C193.265 22.4841 194.193 22.249 194.804 21.7799C195.415 21.3096 195.825 20.6526 196.037 19.8066H200.196C199.89 21.6865 199.069 23.1546 197.729 24.2121C196.389 25.2696 194.498 25.7984 192.054 25.7984C189.188 25.7984 186.979 24.9591 185.429 23.2784C183.879 21.5988 183.103 19.243 183.103 16.2123M195.191 10.7841C194.603 9.96175 193.546 9.55113 192.019 9.55113C190.493 9.55113 189.399 9.99213 188.742 10.873C188.084 11.7539 187.672 12.9115 187.509 14.3448H196.178C196.108 12.7945 195.779 11.6076 195.192 10.7853" fill="white"/>
</g>
<defs>
<clipPath id="clip0_569_2083">
<rect width="200.442" height="32.0704" fill="white"/>
</clipPath>
</defs>
</svg>
