<svg width="225" height="36" viewBox="0 0 225 36" fill="none" xmlns="http://www.w3.org/2000/svg">
<g clip-path="url(#clip0_569_2784)">
<path d="M35.561 14.369C35.3077 13.1191 34.9247 11.9171 34.4245 10.7768C33.8663 9.4941 33.1607 8.28954 32.3278 7.18452C31.3072 5.82498 30.0976 4.61286 28.7356 3.59226C27.3168 2.52504 25.7368 1.66572 24.0358 1.05462C22.1395 0.3717 20.092 0 17.96 0C17.3691 0 16.7845 0.0315 16.2074 0.08694C16.1771 0.08946 16.1469 0.0945 16.1154 0.09702C14.645 0.24696 13.2262 0.57078 11.8831 1.05336C10.1821 1.66446 8.60202 2.52378 7.18326 3.591C5.82372 4.6116 4.6116 5.82372 3.591 7.18326C2.7594 8.28828 2.0538 9.49284 1.49562 10.7755C0.99414 11.9158 0.61236 13.1179 0.3591 14.3678C0.12348 15.5282 0 16.729 0 17.96C0 19.1911 0.12348 20.3918 0.3591 21.5523C0.61236 22.8022 0.9954 24.0043 1.49562 25.1446C2.0538 26.4272 2.7594 27.6318 3.591 28.7368C4.14792 29.4802 4.76406 30.1783 5.42808 30.8259C5.97996 31.3652 6.5646 31.8679 7.18326 32.3291C10.1846 34.5845 13.9167 35.9213 17.9588 35.9213C22.0009 35.9213 25.733 34.5857 28.7343 32.3291C29.3517 31.8679 29.9376 31.3639 30.4882 30.8259C31.1522 30.1795 31.7684 29.4802 32.3253 28.7368C33.1569 27.6318 33.8625 26.4272 34.4219 25.1446C34.9234 24.0043 35.3052 22.8022 35.5585 21.5523C35.7941 20.3918 35.9176 19.1911 35.9176 17.96C35.9176 16.729 35.7941 15.5282 35.5585 14.3678M31.8755 21.5523C31.5491 22.8249 31.0489 24.032 30.4063 25.1446C29.8759 26.0618 29.2459 26.9174 28.5314 27.691C28.1938 28.0589 27.8359 28.408 27.463 28.7368C27.3433 28.8427 27.2198 28.9447 27.0963 29.0468L26.9413 28.7368L26.0429 26.9413L25.1446 25.1458L24.2462 23.3503L23.3478 21.5548L22.4494 19.7593L21.551 17.9638L20.6527 16.1683L19.7543 14.3728L18.8559 12.5773L17.9575 10.7818L17.0591 12.5773L16.1608 14.3728L17.0591 16.1683L17.9575 17.9638L18.8559 19.7593L19.7543 21.5548L20.6527 23.3503L21.551 25.1458L22.4494 26.9413L23.3478 28.7368L24.2462 30.5323L24.386 30.812C23.9085 31.0514 23.4146 31.2631 22.9093 31.4496L22.4507 30.5336L21.5523 28.7381L20.6539 26.9426L19.7555 25.1471L18.8572 23.3516L17.9588 21.5561L17.0604 19.7606L16.162 17.9651L15.2636 16.1696L14.3653 17.9651L13.4669 19.7606L14.3653 21.5561L15.2636 23.3516L16.162 25.1471L17.0604 26.9426L17.9588 28.7381L18.8572 30.5336L19.7001 32.2207C19.1293 32.29 18.5485 32.3291 17.9588 32.3291L17.0617 30.5336L16.1633 28.7381L15.2649 26.9426L14.3665 25.1471L13.4681 23.3516L12.5698 21.5561L11.6714 23.3516L10.773 25.1471L11.6714 26.9426L12.5698 28.7381L13.4681 30.5336L14.1032 31.8037C11.9826 31.214 10.0586 30.1531 8.4546 28.7368C8.08164 28.408 7.7238 28.0589 7.38612 27.691C6.6717 26.9174 6.04044 26.0618 5.51124 25.1446C4.86864 24.0332 4.36842 22.8262 4.04208 21.5523C3.74598 20.4044 3.58974 19.2011 3.58974 17.96C3.58974 16.7189 3.74598 15.5156 4.04208 14.3678C4.37094 13.0927 4.86864 11.8868 5.5125 10.7755C6.2937 9.42354 7.29036 8.2089 8.4546 7.18326C9.71712 6.06942 11.1812 5.1786 12.7789 4.5612L17.9575 10.7755L23.1349 4.5612C24.7325 5.1786 26.1954 6.06942 27.4592 7.18326C28.6234 8.2089 29.6201 9.42228 30.4013 10.7755C31.0464 11.8868 31.5441 13.0927 31.8717 14.3678C32.1678 15.5156 32.324 16.7189 32.324 17.96C32.324 19.2011 32.1678 20.4044 31.8717 21.5523" fill="white"/>
<path d="M44.8993 18.0769C44.8993 15.8404 45.3075 13.9 46.1227 12.2544C46.938 10.6101 48.0959 9.34002 49.5966 8.44542C51.096 7.55082 52.8852 7.10352 54.9642 7.10352C57.5421 7.10352 59.5632 7.73478 61.0235 8.99856C62.4838 10.2611 63.3847 12.0251 63.7275 14.288L58.9508 14.9193C58.7404 13.7614 58.3384 12.8403 57.7462 12.1561C57.154 11.4719 56.2128 11.1292 54.9238 11.1292C53.1611 11.1292 51.9036 11.768 51.1539 13.0432C50.4042 14.3195 50.0287 15.9575 50.0287 17.9572C50.0287 19.9568 50.3967 21.6086 51.1338 22.9115C51.8709 24.2143 53.1334 24.8657 54.9226 24.8657C56.238 24.8657 57.2322 24.5104 57.9025 23.7998C58.5741 23.0891 59.0012 22.129 59.1852 20.9182H64.0009C63.6846 23.418 62.7573 25.3723 61.2175 26.7797C59.6778 28.1884 57.5396 28.8914 54.8029 28.8914C51.6189 28.8914 49.1719 27.9238 47.4609 25.9897C45.7498 24.0556 44.8955 21.4171 44.8955 18.0756" fill="white"/>
<path d="M65.1641 18.0365C65.1641 15.7736 65.5849 13.8269 66.4278 12.1952C67.2695 10.5635 68.4602 9.30726 69.9999 8.42526C71.5397 7.54452 73.3616 7.10352 75.4671 7.10352C78.6776 7.10352 81.1774 8.05734 82.9666 9.96498C84.7558 11.8739 85.6504 14.5111 85.6504 17.879C85.6504 21.247 84.7356 23.9913 82.9074 25.9506C81.0779 27.9112 78.5591 28.8914 75.3486 28.8914C72.1382 28.8914 69.6056 27.9376 67.829 26.03C66.0524 24.1223 65.1641 21.4574 65.1641 18.0365ZM70.296 17.9584C70.296 20.0374 70.6967 21.7082 71.5006 22.9707C72.3032 24.2332 73.5985 24.8657 75.389 24.8657C77.1794 24.8657 78.481 24.2345 79.2962 22.9707C80.1114 21.7082 80.5197 20.0374 80.5197 17.9584C80.5197 15.8794 80.1114 14.2225 79.2962 12.9852C78.4797 11.7491 77.1782 11.1305 75.389 11.1305C73.5998 11.1305 72.336 11.7491 71.5208 12.9852C70.7043 14.2225 70.2973 15.8807 70.2973 17.9584" fill="white"/>
<path d="M87.2295 0H92.243V4.4604H87.2295V0ZM87.2686 7.7364H92.2418V28.2618H87.2686V7.7364Z" fill="white"/>
<path d="M94.6094 7.73478H99.4642V10.5773C100.491 9.28836 101.57 8.3862 102.701 7.87338C103.833 7.36056 105.003 7.10352 106.214 7.10352C108.477 7.10352 110.187 7.74234 111.345 9.01746C112.503 10.2938 113.081 12.1297 113.081 14.5237V28.2602H108.108V15.4712C108.108 13.9453 107.824 12.8605 107.26 12.2153C106.694 11.5715 105.832 11.2477 104.674 11.2477C104.017 11.2477 103.378 11.3661 102.76 11.603C102.142 11.8399 101.582 12.209 101.083 12.708C100.583 13.1553 100.208 13.6354 99.9581 14.1482C99.7073 14.661 99.5826 15.3389 99.5826 16.1806V28.2589H94.6094V7.73478Z" fill="white"/>
<path d="M115.431 7.73478H120.285V10.3405C121.891 8.18334 124.048 7.10352 126.759 7.10352C129.471 7.10352 131.733 8.0775 133.154 10.0242C134.575 11.9722 135.286 14.564 135.286 17.8009C135.286 20.0639 134.924 22.0307 134.201 23.7015C133.476 25.3723 132.457 26.6562 131.142 27.5495C129.825 28.4441 128.246 28.8914 126.405 28.8914C125.274 28.8914 124.188 28.6672 123.149 28.2199C122.11 27.7726 121.195 27.0355 120.406 26.0098V35.9172H115.433V7.73478H115.431ZM130.193 17.9181C130.193 16.2347 129.976 14.8979 129.541 13.9113C129.107 12.9247 128.535 12.2141 127.824 11.7794C127.113 11.3447 126.337 11.128 125.496 11.128C123.784 11.128 122.502 11.7076 121.648 12.8642C120.792 14.0222 120.365 15.509 120.365 17.3246V18.47C120.365 20.4431 120.766 22.003 121.568 23.1471C122.371 24.2924 123.614 24.8645 125.298 24.8645C126.744 24.8645 127.922 24.3315 128.831 23.2655C129.738 22.1996 130.193 20.4179 130.193 17.9168" fill="white"/>
<path d="M136.666 18.0365C136.666 15.7736 137.087 13.8269 137.93 12.1952C138.771 10.5635 139.962 9.30726 141.502 8.42526C143.042 7.54452 144.864 7.10352 146.969 7.10352C150.18 7.10352 152.679 8.05734 154.469 9.96498C156.258 11.8739 157.152 14.5111 157.152 17.879C157.152 21.247 156.238 23.9913 154.409 25.9506C152.58 27.9112 150.061 28.8914 146.851 28.8914C143.64 28.8914 141.108 27.9376 139.331 26.03C137.554 24.1223 136.666 21.4574 136.666 18.0365ZM141.798 17.9584C141.798 20.0374 142.199 21.7082 143.003 22.9707C143.805 24.2332 145.1 24.8657 146.891 24.8657C148.681 24.8657 149.983 24.2345 150.798 22.9707C151.613 21.7082 152.022 20.0374 152.022 17.9584C152.022 15.8794 151.613 14.2225 150.798 12.9852C149.982 11.7491 148.68 11.1305 146.891 11.1305C145.102 11.1305 143.838 11.7491 143.023 12.9852C142.206 14.2225 141.799 15.8807 141.799 17.9584" fill="white"/>
<path d="M159.126 7.73618H163.981V10.6178C165.507 8.46068 167.467 7.38086 169.862 7.38086C170.23 7.38086 170.579 7.39472 170.908 7.41992C171.237 7.44638 171.533 7.48544 171.797 7.53836L171.204 11.9194C170.625 11.7619 170.006 11.6825 169.35 11.6825C168.693 11.6825 168.067 11.7808 167.475 11.9786C166.883 12.1764 166.323 12.499 165.798 12.9463C165.271 13.3671 164.856 13.8812 164.554 14.486C164.252 15.0921 164.1 15.8153 164.1 16.657V28.2616H159.127V7.73618H159.126Z" fill="white"/>
<path d="M171.631 22.5763C171.631 21.2344 171.913 20.1155 172.48 19.2209C173.046 18.3263 173.816 17.622 174.79 17.1092C175.762 16.5964 176.875 16.2284 178.125 16.0042C179.375 15.7811 180.684 15.6425 182.052 15.5896L185.21 15.4712V14.7215C185.21 13.3002 184.907 12.2683 184.301 11.6231C183.695 10.9793 182.723 10.6555 181.381 10.6555C180.039 10.6555 179.091 10.886 178.46 11.3459C177.829 11.8071 177.407 12.4585 177.196 13.3002L172.736 12.9058C173.104 10.9062 174.025 9.43956 175.499 8.50464C176.972 7.57098 178.985 7.10352 181.538 7.10352C184.591 7.10352 186.761 7.794 188.051 9.17622C189.34 10.5584 189.985 12.5518 189.985 15.1562V28.2602H185.367V25.7339C184.579 26.6285 183.644 27.3593 182.565 27.925C181.485 28.4908 180.184 28.7743 178.658 28.7743C176.579 28.7743 174.888 28.2413 173.585 27.1753C172.282 26.1094 171.631 24.5772 171.631 22.5763ZM176.447 22.3394C176.447 23.1824 176.709 23.859 177.237 24.3718C177.763 24.8846 178.618 25.1417 179.802 25.1417C181.434 25.1417 182.743 24.7208 183.729 23.8792C184.716 23.0375 185.21 21.8531 185.21 20.3272V18.5909L182.289 18.7094C180.053 18.7888 178.519 19.1302 177.691 19.7363C176.862 20.3423 176.448 21.2105 176.448 22.342" fill="white"/>
<path d="M194.221 21.1556V11.6426H190.984V7.73534H194.221V2.20898H199.195V7.73534H204.286V11.6426H199.195V21.6684C199.195 22.5895 199.405 23.3127 199.826 23.8394C200.247 24.3661 200.892 24.6282 201.76 24.6282C202.26 24.6282 202.707 24.5891 203.102 24.5097C203.496 24.4303 203.864 24.3384 204.207 24.2338L204.957 27.9445C204.299 28.1549 203.621 28.325 202.924 28.4573C202.227 28.5883 201.431 28.6551 200.536 28.6551C198.905 28.6551 197.628 28.359 196.707 27.7668C195.786 27.1746 195.141 26.3203 194.773 25.2015C194.404 24.0826 194.22 22.7344 194.22 21.1556" fill="white"/>
<path d="M205.075 18.155C205.075 15.7862 205.496 13.7803 206.338 12.136C207.179 10.4917 208.351 9.24174 209.851 8.3862C211.35 7.53192 213.088 7.10352 215.061 7.10352C217.193 7.10352 218.955 7.53192 220.35 8.3862C221.745 9.24174 222.783 10.4324 223.469 11.9583C224.153 13.4842 224.496 15.2608 224.496 17.2868V19.1416H209.97C210.075 21.1147 210.549 22.6154 211.392 23.641C212.233 24.6667 213.457 25.1807 215.062 25.1807C216.457 25.1807 217.496 24.9174 218.18 24.392C218.865 23.8653 219.325 23.1295 219.561 22.1819H224.22C223.877 24.2874 222.957 25.9317 221.456 27.1161C219.956 28.3005 217.838 28.8927 215.101 28.8927C211.891 28.8927 209.417 27.9527 207.681 26.0703C205.945 24.1891 205.075 21.5507 205.075 18.1562M218.614 12.0767C217.956 11.1557 216.772 10.6958 215.062 10.6958C213.352 10.6958 212.127 11.1897 211.392 12.1763C210.654 13.1629 210.193 14.4594 210.011 16.0646H219.72C219.641 14.3284 219.273 12.9991 218.615 12.078" fill="white"/>
</g>
<defs>
<clipPath id="clip0_569_2784">
<rect width="224.495" height="35.9188" fill="white"/>
</clipPath>
</defs>
</svg>
