<svg width="21" height="21" viewBox="0 0 21 21" fill="none" xmlns="http://www.w3.org/2000/svg">
<path d="M10.24 19.2C12.6163 19.2 14.8954 18.256 16.5757 16.5757C18.256 14.8954 19.2 12.6163 19.2 10.24C19.2 7.86366 18.256 5.58465 16.5757 3.90432C14.8954 2.224 12.6163 1.28 10.24 1.28C7.86366 1.28 5.58465 2.224 3.90432 3.90432C2.224 5.58465 1.28 7.86366 1.28 10.24C1.28 12.6163 2.224 14.8954 3.90432 16.5757C5.58465 18.256 7.86366 19.2 10.24 19.2ZM10.24 0C12.9558 0 15.5604 1.07885 17.4808 2.99923C19.4011 4.9196 20.48 7.52418 20.48 10.24C20.48 12.9558 19.4011 15.5604 17.4808 17.4808C15.5604 19.4011 12.9558 20.48 10.24 20.48C7.52418 20.48 4.9196 19.4011 2.99923 17.4808C1.07885 15.5604 0 12.9558 0 10.24C0 7.52418 1.07885 4.9196 2.99923 2.99923C4.9196 1.07885 7.52418 0 10.24 0ZM12.8 12.16V8.584L7.492 13.892C7.244 14.14 6.836 14.14 6.588 13.892C6.34 13.644 6.34 13.236 6.588 12.988L11.896 7.68H8.32C7.968 7.68 7.68 7.392 7.68 7.04C7.68 6.688 7.968 6.4 8.32 6.4H13.44C13.792 6.4 14.08 6.688 14.08 7.04V12.16C14.08 12.512 13.792 12.8 13.44 12.8C13.088 12.8 12.8 12.512 12.8 12.16Z" fill="black"/>
</svg>
