<svg width="171" height="32" viewBox="0 0 171 32" fill="none" xmlns="http://www.w3.org/2000/svg">
<path d="M14.0737 15.6592C14.0737 12.7831 11.915 10.7617 9.26328 10.7617C6.61159 10.7617 4.45287 12.8172 4.45287 15.6592C4.45287 18.4671 6.61159 20.5567 9.26328 20.5567C11.9176 20.554 14.0737 18.5352 14.0737 15.6592ZM14.1116 24.2194V21.9934C12.8033 23.5351 10.8559 24.492 8.52384 24.492C3.67822 24.492 0 20.7245 0 15.6592C0 10.6254 3.81907 6.7923 8.63218 6.7923C10.8966 6.7923 12.8061 7.75187 14.1143 9.25678V7.09904H18.4642V24.2194H14.1116Z" fill="white"/>
<path d="M39.5935 20.4178C38.0713 20.4178 37.6488 19.8697 37.6488 18.433V10.8324H40.444V7.09903H37.6488V2.92253H33.1905V7.09903H27.4483V6.05819C27.4483 4.61882 28.0145 4.07086 29.5719 4.07086H30.5497V0.749057H28.4045C24.7262 0.749057 22.9928 1.91313 22.9928 5.47353V7.09641H20.5172V10.8298H22.9928V24.2167H27.4511V10.8298H33.1932V19.2195C33.1932 22.7118 34.5719 24.2194 38.1797 24.2194H40.4792V20.4178H39.5935Z" fill="white"/>
<path d="M55.5824 14.1175C55.2654 11.8916 53.3884 10.5571 51.1972 10.5571C49.0032 10.5571 47.1994 11.8575 46.7416 14.1175H55.5824ZM46.7037 16.7891C47.0233 19.3218 48.8976 20.7612 51.2676 20.7612C53.1419 20.7612 54.5938 19.9038 55.4415 18.5352H60.0054C58.9436 22.1638 55.5824 24.4919 51.162 24.4919C45.8207 24.4919 42.0721 20.8633 42.0721 15.6932C42.0721 10.523 46.0347 6.7896 51.2703 6.7896C56.5412 6.7896 60.3603 10.5572 60.3603 15.6932C60.3603 16.0708 60.325 16.4457 60.2546 16.7891H46.7037Z" fill="white"/>
<path d="M88.7053 15.6592C88.7053 12.8853 86.5466 10.7617 83.8949 10.7617C81.2432 10.7617 79.0844 12.8172 79.0844 15.6592C79.0844 18.4671 81.2432 20.5567 83.8949 20.5567C86.5466 20.554 88.7053 18.4331 88.7053 15.6592ZM74.6966 7.09904H79.0465V9.32494C80.3548 7.74924 82.2995 6.7923 84.6343 6.7923C89.4095 6.7923 93.1582 10.5939 93.1582 15.6251C93.1582 20.6589 89.3391 24.4946 84.5287 24.4946C82.2995 24.4946 80.4604 23.6373 79.1874 22.2006V31.2641H74.6966V7.09904Z" fill="white"/>
<path d="M108.838 15.6592C108.838 12.7831 106.682 10.7617 104.027 10.7617C101.376 10.7617 99.2171 12.8172 99.2171 15.6592C99.2171 18.4671 101.376 20.5567 104.027 20.5567C106.682 20.554 108.838 18.5352 108.838 15.6592ZM108.876 24.2194V21.9934C107.568 23.5351 105.62 24.492 103.288 24.492C98.4425 24.492 94.7643 20.7245 94.7643 15.6592C94.7643 10.6254 98.5834 6.7923 103.394 6.7923C105.658 6.7923 107.568 7.75187 108.876 9.25678V7.09904H113.226V24.2194H108.876Z" fill="white"/>
<path d="M66.8553 8.77699C66.8553 8.77699 67.9631 6.7923 70.6743 6.7923C71.8336 6.7923 72.5839 7.17769 72.5839 7.17769V11.5456C72.5839 11.5456 70.9479 10.5677 69.4447 10.7643C67.9414 10.961 66.9907 12.298 66.9962 14.0861V24.222H62.5054V7.10167H66.8553V8.77699Z" fill="white"/>
<path d="M133.542 7.09901L122.559 31.209H117.928L122.24 21.8885L114.949 7.09901H120.198L124.464 16.9805L128.841 7.09901H133.542Z" fill="white"/>
<path d="M168.603 6.711L157.714 0.628446C154.518 -1.15699 150.523 1.07416 150.523 4.64765V5.27164C150.523 5.83532 150.834 6.35706 151.338 6.63759L153.394 7.78593C153.998 8.12415 154.751 7.70204 154.751 7.02824V5.47614C154.751 4.70009 155.618 4.21506 156.311 4.60309L165.742 9.87288C166.436 10.2609 166.436 11.231 165.742 11.6164L156.311 16.8862C155.618 17.2742 154.751 16.7892 154.751 16.0131V15.1872C154.751 11.6137 150.756 9.37999 147.557 11.168L136.669 17.2506C133.473 19.0361 133.473 23.5036 136.669 25.289L147.557 31.3716C150.753 33.157 154.751 30.9258 154.751 27.3524V26.7284C154.751 26.1647 154.44 25.6455 153.936 25.3624L151.88 24.2114C151.276 23.8732 150.523 24.2953 150.523 24.9692V26.5213C150.523 27.2973 149.657 27.7823 148.962 27.3943L139.532 22.1245C138.838 21.7365 138.838 20.7665 139.532 20.3784L148.962 15.1085C149.657 14.7205 150.523 15.2056 150.523 15.9816V16.8075C150.523 20.381 154.518 22.6148 157.714 20.8267L168.603 14.7442C171.799 12.9639 171.799 8.49644 168.603 6.711Z" fill="white"/>
</svg>
