<svg width="149" height="56" viewBox="0 0 149 56" fill="none" xmlns="http://www.w3.org/2000/svg">
<path d="M78.3616 19.1945C77.1197 18.1543 74.9837 17.6341 71.9535 17.6341H65.1481V38.6125H70.2397V32.0242H72.5248C75.2817 32.0242 77.3184 31.405 78.6099 30.1914C80.0753 28.8292 80.7956 27.0211 80.7956 24.7425C80.7956 22.4143 79.976 20.5567 78.3616 19.1945ZM72.3757 27.2688H70.2149V22.3648H72.1522C74.5118 22.3648 75.6791 23.1821 75.6791 24.8416C75.704 26.4515 74.5863 27.2688 72.3757 27.2688ZM89.4887 17.6094H84.1983V38.5877H95.6484V33.8323H89.4887V17.6094ZM106.055 17.6094L97.7099 38.5877H103.422L104.515 35.5413H111.768L112.761 38.5877H118.548L110.278 17.6094H106.055ZM105.981 31.306L108.166 24.1233L110.327 31.306H105.981Z" fill="white"/>
<path d="M121.206 38.5882H126.522V17.6099H121.206V38.5882ZM147.112 21.548C146.441 20.582 145.572 19.7647 144.578 19.1207C142.964 18.1053 140.778 17.6099 138.021 17.6099H131.017V38.5882H139.189C142.144 38.5882 144.529 37.6223 146.317 35.6904C148.105 33.7585 148.999 31.2074 148.999 28.0124C149.024 25.4861 148.378 23.3313 147.112 21.548ZM138.617 33.8328H136.357V22.3653H138.667C140.281 22.3653 141.548 22.8607 142.417 23.8762C143.287 24.8916 143.734 26.3282 143.734 28.1858C143.709 31.9505 142.02 33.8328 138.617 33.8328ZM22.0307 0L4.81845 4.48297L0.0745119 21.7461L6.03548 27.8142L0 33.7833L4.47072 51.1207L21.6085 55.9009L27.644 49.9319L33.5801 56L50.7924 51.517L55.5363 34.2539L49.6002 28.1858L55.6357 22.2167L51.165 4.87926L34.0272 0.0990735L27.9917 6.06811L22.0307 0ZM11.4749 7.80186L20.5405 5.42415L24.5145 9.48607L18.7274 15.2074L11.4749 7.80186ZM31.3696 9.56037L35.3932 5.57276L44.4092 8.09907L37.0325 15.4056C37.0573 15.3808 31.3696 9.56037 31.3696 9.56037ZM5.51389 20.3344L8.02247 11.2446L15.275 18.6502L9.48787 24.3715L5.51389 20.3344ZM40.4601 18.8731L47.8368 11.5666L50.1963 20.7059L46.1726 24.6935C46.1478 24.6935 40.4601 18.8731 40.4601 18.8731ZM22.1301 18.7245L27.9172 13.0031L33.6049 18.8235L27.8178 24.5449L22.1301 18.7245ZM12.8906 27.8638L18.6777 22.1424L24.3654 27.9629L18.5783 33.6842L12.8906 27.8638ZM31.2206 28.0124L37.0077 22.291L42.6954 28.1115L36.9083 33.8328C36.9083 33.8576 31.2206 28.0124 31.2206 28.0124ZM5.41454 35.2941L9.4382 31.3065L15.126 37.1269L7.77409 44.4334C7.74926 44.4334 5.41454 35.2941 5.41454 35.2941ZM21.9811 37.1765L27.7682 31.4551L33.4559 37.2755L27.6688 42.9969L21.9811 37.1765ZM40.311 37.3251L46.0981 31.6037L50.0721 35.6656L47.5884 44.7554C47.5635 44.7554 40.311 37.3251 40.311 37.3251ZM11.152 47.9009L18.5038 40.5944L24.1916 46.4149L20.1679 50.4025L11.152 47.9009ZM31.0715 46.4892L36.8586 40.7678L44.1112 48.1734L35.0455 50.5511L31.0715 46.4892Z" fill="white"/>
</svg>
