<svg width="107" height="39" viewBox="0 0 107 39" fill="none" xmlns="http://www.w3.org/2000/svg">
<path fill-rule="evenodd" clip-rule="evenodd" d="M45.9976 12.8814C47.9673 12.4991 49.937 12.0967 51.8871 11.7145C51.8674 20.6275 51.8674 29.5203 51.8871 38.4132C49.937 38.0108 47.9673 37.5883 46.0173 37.2061C45.9582 36.4214 45.9976 35.6367 45.9976 34.8521C45.9779 27.5486 45.9779 20.2251 45.9976 12.8814ZM93.6453 16.8248C91.9907 16.8651 90.2967 17.3882 89.0164 18.4747C87.9528 19.3599 87.1846 20.5671 86.7512 21.895C86.2785 23.3235 86.18 24.8727 86.3573 26.3817C86.5543 28.112 87.224 29.8221 88.4058 31.0897C89.3316 32.0957 90.5922 32.7998 91.9119 33.1016C93.5665 33.4839 95.3589 33.4236 96.915 32.6791C98.0574 32.156 99.0029 31.2305 99.6726 30.1441C100.421 28.9168 100.795 27.4883 100.914 26.0396C101.051 24.41 100.874 22.74 100.283 21.2109C99.7711 19.8428 98.8453 18.6155 97.6044 17.8308C96.4226 17.0864 95.0241 16.7645 93.6453 16.8248ZM92.7786 11.2115C95.6347 11.0103 98.6287 11.5535 101.091 13.1027C102.47 13.9679 103.651 15.1147 104.577 16.4627C105.385 17.6699 105.976 19.0179 106.389 20.4263C106.823 21.9352 106.98 23.5247 107 25.094C107 27.9711 106.35 30.9086 104.794 33.3431C103.435 35.516 101.367 37.2061 99.0029 38.0913C97.4665 38.6748 95.8514 38.9565 94.2165 38.9967C91.1437 39.0571 87.9725 38.2925 85.4709 36.4415C83.3436 34.8923 81.7875 32.6188 80.9996 30.0837C80.4481 28.3936 80.2314 26.5829 80.2511 24.7922C80.2708 21.6737 81.1572 18.4948 83.0678 16.0402C84.6239 14.0081 86.8497 12.5595 89.2725 11.8352C90.3952 11.473 91.5771 11.2718 92.7786 11.2115ZM8.33642 12.3985C9.75463 11.5535 11.3895 11.1511 13.0244 11.1712C15.6244 11.2718 18.126 12.64 19.6427 14.8129C20.4108 13.7465 21.4745 12.9216 22.6169 12.3382C25.1973 11.0706 28.3291 10.8694 30.9883 11.976C32.2292 12.4991 33.3519 13.3039 34.2186 14.3501C35.105 15.4165 35.6959 16.7041 36.0505 18.032C36.4247 19.4203 36.5232 20.8689 36.4838 22.2974C36.4838 27.6693 36.4838 33.0614 36.4838 38.4333C34.5338 38.031 32.5641 37.6084 30.5943 37.2262C30.5746 32.0755 30.5943 26.9249 30.5746 21.7743C30.5943 20.5872 30.1807 19.38 29.3534 18.5551C28.467 17.6296 27.167 17.187 25.9064 17.2071C24.7836 17.187 23.6412 17.529 22.7548 18.2533C21.7503 19.0581 21.2184 20.386 21.2184 21.6938C21.2184 27.2669 21.2184 32.8602 21.2184 38.4333C19.2487 38.031 17.279 37.6084 15.3093 37.2262C15.2896 35.5764 15.3093 33.9064 15.2896 32.2365C15.2896 28.7759 15.2896 25.3153 15.2896 21.8346C15.329 20.6476 14.935 19.4203 14.1077 18.5753C13.3789 17.8107 12.3744 17.3681 11.3698 17.2474C10.4046 17.1468 9.41977 17.2272 8.5137 17.6095C7.56823 18.0119 6.76064 18.7765 6.3273 19.7221C6.03184 20.3659 5.89396 21.0701 5.89396 21.7743C5.89396 26.1201 5.89396 30.466 5.89396 34.8118C5.91366 36.019 5.87427 37.2262 5.91366 38.4333C3.94393 38.0511 1.9939 37.6084 0.0438755 37.2463C0.00448098 36.5421 0.0635728 35.8178 0.00448098 35.1337C0.0241782 34.3289 0.0241782 33.5242 0.00448098 32.7194C0.0635728 31.9749 0.00448098 31.2104 0.0241782 30.466C0.0241782 28.3333 0.0241782 26.2006 0.0241782 24.0679C0.00448098 22.74 0.0438755 21.392 0.00448098 20.0641C0.0241782 19.3197 0.0241782 18.5551 0.00448098 17.8107C0.0438755 16.3219 0.0241782 14.8531 0.0241782 13.3643C0.0438755 13.2234 -0.0743081 13.0021 0.08327 12.9216C2.0333 12.5394 3.96363 12.1571 5.91366 11.7748C5.89396 12.6802 5.91366 13.5856 5.91366 14.491C6.60306 13.6459 7.41065 12.9216 8.33642 12.3985ZM72.5889 11.5736C73.5344 11.4127 74.4995 11.2517 75.445 11.0907C75.445 13.1832 75.445 15.2756 75.445 17.3681C74.4995 17.5492 73.5541 17.7302 72.6086 17.8912C71.1904 18.1326 69.7131 18.5551 68.6494 19.6014C67.7828 20.4263 67.3691 21.6334 67.2903 22.8205C67.2312 23.6655 67.2706 24.5106 67.2706 25.3757C67.2706 29.7215 67.2706 34.0674 67.2706 38.4132C65.6358 38.0712 64.0009 37.7292 62.3463 37.4072C62.0312 37.3469 61.7357 37.2664 61.4008 37.2262C61.3221 36.7634 61.3811 36.3007 61.3615 35.8379C61.3615 31.2104 61.3615 26.603 61.3615 21.9755C61.4008 20.5269 61.6372 19.0581 62.2281 17.7101C62.7994 16.3621 63.8039 15.2153 64.9857 14.3702C66.5615 13.2637 68.3934 12.5997 70.2449 12.0967C71.0328 11.9157 71.7813 11.6943 72.5889 11.5736ZM48.3613 0.0450586C49.3067 -0.0756593 50.331 0.0249389 51.1386 0.608409C52.0643 1.23212 52.5765 2.35882 52.5962 3.4654C52.6553 3.78731 52.5765 4.12935 52.5765 4.45126C52.478 5.45724 51.9659 6.42299 51.1189 6.98634C50.2325 7.58993 49.0901 7.69053 48.0461 7.46921C47.1794 7.28813 46.3718 6.72478 45.8794 5.94012C45.3082 5.01461 45.2097 3.84767 45.4264 2.78133C45.6233 1.77535 46.293 0.849845 47.1991 0.407212C47.5734 0.226135 47.9673 0.105418 48.3613 0.0450586Z" fill="white"/>
</svg>
