<svg width="40" height="40" viewBox="0 0 40 40" fill="none" xmlns="http://www.w3.org/2000/svg">
<g clip-path="url(#clip0_569_2644)">
<path d="M18.7625 7.25C18.7625 6.91848 18.8942 6.60054 19.1286 6.36612C19.363 6.1317 19.681 6 20.0125 6C20.344 6 20.662 6.1317 20.8964 6.36612C21.1308 6.60054 21.2625 6.91848 21.2625 7.25C21.2625 7.58152 21.1308 7.89946 20.8964 8.13388C20.662 8.3683 20.344 8.5 20.0125 8.5C19.681 8.5 19.363 8.3683 19.1286 8.13388C18.8942 7.89946 18.7625 7.58152 18.7625 7.25ZM21.375 10.2C22.4875 9.6875 23.2625 8.55625 23.2625 7.25C23.2625 5.45625 21.8063 4 20.0125 4C18.2188 4 16.7625 5.45625 16.7625 7.25C16.7625 8.55 17.5312 9.675 18.6375 10.1937L12 16L5.475 14.6938C5.80625 14.2125 6 13.625 6 13C6 11.3438 4.65625 10 3 10C1.34375 10 0 11.3438 0 13C0 14.625 1.2875 15.9438 2.9 16L3.00625 16.2437L9.9375 31.6437C10.5813 33.0812 12.0125 34 13.5875 34H26.4125C27.9875 34 29.4125 33.075 30.0625 31.6437L36.9938 16.2437L37.1063 16C38.7188 15.9438 40.0062 14.625 40.0062 13C40.0062 11.3438 38.6625 10 37.0062 10C35.35 10 34.0062 11.3438 34.0062 13C34.0062 13.6313 34.2 14.2125 34.5312 14.6938L28 16L21.375 10.2ZM28.3937 17.9625L34.5812 16.725L28.2375 30.825C27.9125 31.5438 27.2 32.0063 26.4125 32.0063H13.5875C12.8 32.0063 12.0875 31.5438 11.7625 30.825L5.41875 16.725L11.6062 17.9625C12.2188 18.0875 12.85 17.9188 13.3125 17.5063L20 11.6562L26.6812 17.5063C27.15 17.9188 27.7812 18.0812 28.3875 17.9625H28.3937ZM37 12C37.2652 12 37.5196 12.1054 37.7071 12.2929C37.8946 12.4804 38 12.7348 38 13C38 13.2652 37.8946 13.5196 37.7071 13.7071C37.5196 13.8946 37.2652 14 37 14C36.7348 14 36.4804 13.8946 36.2929 13.7071C36.1054 13.5196 36 13.2652 36 13C36 12.7348 36.1054 12.4804 36.2929 12.2929C36.4804 12.1054 36.7348 12 37 12ZM2 13C2 12.7348 2.10536 12.4804 2.29289 12.2929C2.48043 12.1054 2.73478 12 3 12C3.26522 12 3.51957 12.1054 3.70711 12.2929C3.89464 12.4804 4 12.7348 4 13C4 13.2652 3.89464 13.5196 3.70711 13.7071C3.51957 13.8946 3.26522 14 3 14C2.73478 14 2.48043 13.8946 2.29289 13.7071C2.10536 13.5196 2 13.2652 2 13Z" fill="#00382F"/>
</g>
<defs>
<clipPath id="clip0_569_2644">
<rect width="40" height="40" fill="white"/>
</clipPath>
</defs>
</svg>
