<svg width="175" height="44" viewBox="0 0 175 44" fill="none" xmlns="http://www.w3.org/2000/svg">
<path d="M36.5384 0H7.33062C3.28158 0 0 3.29137 0 7.3525V36.6475C0 40.7086 3.28158 44 7.33062 44H36.5384C40.5875 44 43.869 40.7086 43.869 36.6475V7.3525C43.869 3.29137 40.5875 0 36.5384 0ZM35.8945 33.6791C35.8945 34.962 34.8579 36.0016 33.5788 36.0016H10.2902C9.01111 36.0016 7.97459 34.962 7.97459 33.6791V10.3209C7.97459 9.03801 9.01111 7.99839 10.2902 7.99839H33.5788C34.8579 7.99839 35.8945 9.03801 35.8945 10.3209V33.6791ZM17.2812 27.9722C16.5446 27.9722 15.9536 27.375 15.9536 26.6362V17.3107C15.9536 16.5719 16.5446 15.9702 17.2812 15.9702H26.5922C27.3244 15.9702 27.9199 16.5675 27.9199 17.3107V26.6318C27.9199 27.3706 27.3244 27.9678 26.5922 27.9678H17.2812V27.9722ZM55.5001 27.3352H60.2902C60.5283 30.0559 62.3676 32.1794 66.077 32.1794C69.3895 32.1794 71.4272 30.5381 71.4272 28.0563C71.4272 25.7338 69.8306 24.6941 66.9548 24.0129L63.2409 23.2121C59.2095 22.3318 56.175 19.7305 56.175 15.4836C56.175 10.7987 60.3255 7.59582 65.7154 7.59582C71.4228 7.59582 75.097 10.5996 75.4145 15.0412H70.7833C70.2319 12.962 68.5117 11.7233 65.7198 11.7233C62.7646 11.7233 60.7312 13.3248 60.7312 15.3686C60.7312 17.4124 62.4867 18.6511 65.5213 19.3324L69.1954 20.1331C73.2268 21.0135 75.9791 23.4555 75.9791 27.7378C75.9791 33.1836 71.908 36.4263 66.0814 36.4263C59.5315 36.4219 55.9015 32.8606 55.5001 27.3352ZM93.1148 44V36.0326L93.4279 32.5377H93.1148C92.0165 35.0505 89.7097 36.4263 86.5781 36.4263C81.5278 36.4263 77.7699 32.3032 77.7699 25.9815C77.7699 19.6598 81.5278 15.5367 86.5781 15.5367C89.67 15.5367 91.8621 16.9877 93.1148 19.266H93.4279V15.926H97.5784V44H93.1148ZM93.2691 25.9771C93.2691 21.9336 90.8035 19.5757 87.7866 19.5757C84.7697 19.5757 82.3041 21.9336 82.3041 25.9771C82.3041 30.0205 84.7697 32.3784 87.7866 32.3784C90.8035 32.3784 93.2691 30.0249 93.2691 25.9771ZM100.891 28.0607V15.926H105.355V27.667C105.355 30.8478 106.881 32.3784 109.426 32.3784C112.557 32.3784 114.595 30.14 114.595 26.6451V15.926H119.059V36.0282H114.908V31.8653H114.595C113.616 34.5373 111.463 36.4219 108.138 36.4219C103.356 36.4219 100.891 33.3605 100.891 28.0607ZM121.776 30.4142C121.776 26.6451 124.4 24.4464 129.058 24.1721L134.576 23.8182V22.2477C134.576 20.3632 133.204 19.2262 130.778 19.2262C128.546 19.2262 127.214 20.3632 126.861 21.9735H122.398C122.869 17.8902 126.235 15.5323 130.774 15.5323C135.903 15.5323 139.035 17.7309 139.035 21.9735V36.0282H134.884V32.2988H134.571C133.632 34.7718 131.673 36.4219 127.915 36.4219C124.321 36.4219 121.776 33.9887 121.776 30.4142ZM134.58 27.9413V26.8795L130.077 27.1936C127.651 27.3485 126.552 28.2554 126.552 30.0603C126.552 31.591 127.805 32.6925 129.565 32.6925C132.741 32.6925 134.58 30.6531 134.58 27.9413ZM142.365 36.0326V15.926H146.515V19.7748H146.829C147.415 17.1426 149.413 15.926 152.386 15.926H154.424V19.9694H151.879C148.981 19.9694 146.829 21.854 146.829 25.4285V36.0282H142.365V36.0326ZM174.845 26.8043H159.615C159.849 30.4939 162.434 32.5775 165.292 32.5775C167.718 32.5775 169.244 31.5954 170.108 29.9453H174.532C173.319 34.0286 169.755 36.4219 165.252 36.4219C159.342 36.4219 155.191 31.9847 155.191 25.9771C155.191 19.9694 159.456 15.5323 165.292 15.5323C171.162 15.5323 175 19.5757 175 24.6012C175.004 25.5878 174.925 26.0965 174.845 26.8043ZM170.58 23.7032C170.426 20.9161 168.115 19.0316 165.296 19.0316C162.632 19.0316 160.405 20.7215 159.853 23.7032H170.58Z" fill="white"/>
</svg>
