<svg width="193" height="33" viewBox="0 0 193 33" fill="none" xmlns="http://www.w3.org/2000/svg">
<path d="M191.013 9.7292C191.013 8.99722 190.493 8.50924 189.638 8.50924L187.957 8.53974L187.987 12.2606H188.904V10.9797H189.454L190.249 12.2606H191.319L190.371 10.8272C190.567 10.7186 190.73 10.5594 190.843 10.3661C190.956 10.1729 191.015 9.95289 191.013 9.7292ZM189.454 10.2172H188.874V9.27172H189.546C189.667 9.25848 189.789 9.29229 189.885 9.36612C189.982 9.43995 190.047 9.54814 190.066 9.66821V9.69871C190.063 9.7741 190.045 9.84816 190.012 9.91613C189.979 9.98409 189.933 10.0444 189.875 10.0933C189.818 10.1421 189.75 10.1784 189.678 10.1997C189.605 10.2211 189.529 10.227 189.454 10.2172ZM53.8809 26.9307C52.3223 26.9307 51.2526 25.7107 51.2526 23.9113V15.707H57.6706V9.9122H51.2679L51.2068 3.2634H44.1164L44.1775 25.4057C44.1775 29.8891 47.1726 32.939 51.5735 32.939C53.8962 32.939 56.0967 32.6035 57.8387 31.8105V26.1682C56.6017 26.7411 55.2428 27.0029 53.8809 26.9307ZM70.8123 9.54622C64.2109 9.54622 59.1376 14.6701 59.1376 21.4713C59.1376 28.2116 64.2109 32.9085 71.2096 32.9085C75.1522 32.9085 78.8502 31.5055 81.1118 28.6081L75.6717 26.1377C74.5715 27.1442 72.8906 27.5407 71.393 27.5407C68.9481 27.5407 66.5031 26.2902 66.1669 23.7283H82.3954C82.6393 22.8129 82.7625 21.8696 82.7621 20.9224C82.7621 13.9381 77.6582 9.54622 70.8276 9.54622H70.8123ZM66.1669 19.2449C66.3808 16.195 68.5813 14.792 70.9957 14.792C73.7157 14.792 75.7634 16.317 75.7634 18.9399V19.2449H66.1669ZM37.3774 26.9307C35.8188 26.9307 34.7491 25.7107 34.7491 23.9113V15.707H41.1671V9.9122H34.7644L34.7032 3.2634H27.6128L27.674 25.4057C27.674 29.8891 30.669 32.939 35.07 32.939C37.3927 32.939 39.5932 32.6035 41.3352 31.8105V26.1682C40.099 26.7439 38.7395 27.0058 37.3774 26.9307ZM12.4693 9.54622C6.38748 9.54622 0 13.5416 0 21.5933C0 28.3031 4.52319 33 10.2383 33C13.5084 33 15.984 31.6885 17.6038 29.3706L17.8177 32.6035H24.6789V21.8678C24.6789 13.6941 18.6429 9.54622 12.4693 9.54622ZM12.4693 26.8087C9.38256 26.8087 7.15153 24.5213 7.15153 21.2884C7.15153 18.0555 9.352 15.768 12.4693 15.768C15.3422 15.768 17.726 18.2689 17.726 21.2884C17.726 24.3078 15.3422 26.8087 12.4693 26.8087ZM189.302 6.83179C187.07 6.86229 185.634 8.29575 185.665 10.4307C185.695 12.5656 187.162 13.9686 189.393 13.9381C191.563 13.9076 193.03 12.4741 193 10.3087C192.969 8.14326 191.502 6.80129 189.302 6.83179ZM189.393 13.3281C187.651 13.3586 186.459 12.1996 186.459 10.4307C186.459 8.66174 187.59 7.47227 189.332 7.44177C191.074 7.41127 192.235 8.57024 192.266 10.3697C192.266 12.1081 191.105 13.2976 189.408 13.3281H189.393ZM154.644 9.9427L149.693 24.2773L144.681 9.9427H136.979L146.209 32.573H153.116L162.346 9.9427H154.644ZM173.012 9.54622C166.411 9.54622 161.337 14.6701 161.337 21.4713C161.337 28.2116 166.411 32.9085 173.409 32.9085C177.352 32.9085 181.05 31.5055 183.311 28.6081L177.871 26.1377C176.771 27.1442 175.09 27.5407 173.593 27.5407C171.148 27.5407 168.703 26.2902 168.367 23.7283H184.595C184.839 22.8129 184.962 21.8696 184.962 20.9224C184.962 13.9381 179.858 9.54622 173.012 9.54622ZM177.963 19.2449H168.367C168.58 16.195 170.781 14.792 173.195 14.792C175.915 14.792 177.963 16.317 177.963 18.9399V19.2449ZM131.509 0C129.003 0 127.108 1.67745 127.108 4.02588C127.108 6.37431 129.003 8.11275 131.509 8.11275C134.015 8.11275 135.91 6.40481 135.91 4.02588C135.91 1.64695 134.045 0 131.509 0ZM99.3268 9.51571C97.8938 9.49261 96.4793 9.84 95.2207 10.5241C93.9622 11.2082 92.9025 12.2057 92.1447 13.4196L91.9002 9.9427H85.0543V32.573H92.1447V20.7089C92.2975 17.8725 94.5896 15.707 97.0957 15.707C99.9074 15.707 101.191 17.8115 101.191 20.4649V32.5425H108.251V19.3669C108.251 13.6331 104.752 9.51571 99.3268 9.51571ZM120.965 26.9307C119.406 26.9307 118.336 25.7107 118.336 23.9113V15.707H124.754V9.9122H118.336L118.275 3.2634H111.185L111.246 25.4057C111.246 29.8891 114.241 32.939 118.642 32.939C120.965 32.939 123.165 32.6035 124.907 31.8105V26.1682C123.676 26.7414 122.322 27.0033 120.965 26.9307ZM127.933 9.9427V32.573H135.084V9.9427C134.024 10.6438 132.781 11.0178 131.509 11.0178C130.237 11.0178 128.993 10.6438 127.933 9.9427Z" fill="white"/>
</svg>
