<svg width="17" height="17" viewBox="0 0 17 17" fill="none" xmlns="http://www.w3.org/2000/svg">
<g clip-path="url(#clip0_569_2639)">
<path d="M14.5819 10.883C14.4648 11.1725 14.328 11.4523 14.1734 11.7202C13.9262 12.1478 13.6325 12.5467 13.2994 12.9072C13.1419 13.079 12.9754 13.2413 12.8011 13.3944C12.745 13.4438 12.6874 13.4914 12.6298 13.5389L12.5578 13.3944L12.1392 12.5573L11.7206 11.7202L11.3021 10.883L10.8835 10.0459L10.465 9.2088L10.0464 8.37168L9.62784 7.53456L9.20928 6.69744L8.79072 5.86032L8.37216 5.0232L7.9536 5.86032L7.53504 6.69744L7.9536 7.53456L8.37216 8.37168L8.79072 9.2088L9.20928 10.0459L9.62784 10.883L10.0464 11.7202L10.465 12.5573L10.8835 13.3944L11.3021 14.2315L11.3674 14.3616C11.1446 14.473 10.9147 14.5718 10.6786 14.6587L10.465 14.2315L10.0464 13.3944L9.62784 12.5573L9.20928 11.7202L8.79072 10.883L8.37216 10.0459L7.9536 9.2088L7.53504 8.37168L7.11648 7.53456L6.69792 8.37168L6.27936 9.2088L6.69792 10.0459L7.11648 10.883L7.53504 11.7202L7.9536 12.5573L8.37216 13.3944L8.79072 14.2315L9.18384 15.0178C8.91744 15.0499 8.64672 15.0682 8.37168 15.0682L7.95312 14.2315L7.53456 13.3944L7.116 12.5573L6.69744 11.7202L6.27888 10.883L5.86032 10.0459L5.44176 10.883L5.0232 11.7202L5.44176 12.5573L5.86032 13.3944L6.27888 14.2315L6.57504 14.8238C5.58672 14.5493 4.69008 14.0544 3.94224 13.3944C3.768 13.2413 3.60144 13.0786 3.444 12.9072C3.11088 12.5462 2.81712 12.1478 2.56992 11.7202C2.2704 11.2018 2.0376 10.6392 1.88496 10.0459C1.74672 9.51072 1.67376 8.95008 1.67376 8.37168C1.67376 7.79328 1.74672 7.23216 1.88496 6.69744C2.03808 6.1032 2.26992 5.54112 2.5704 5.0232C2.93472 4.39296 3.39936 3.82704 3.94176 3.34896C4.53072 2.8296 5.21232 2.4144 5.95728 2.12688L8.3712 5.02368L10.7842 2.12688C11.5291 2.4144 12.2107 2.8296 12.7997 3.34896C13.3421 3.82704 13.8067 4.39296 14.171 5.0232C14.3266 5.29104 14.4629 5.57088 14.5805 5.86032H16.3589C16.2691 5.57424 16.1645 5.29488 16.045 5.0232C15.7848 4.4256 15.4555 3.86352 15.0682 3.34896C14.5925 2.71536 14.0285 2.1504 13.3939 1.67472C12.7325 1.17744 11.9962 0.77616 11.2032 0.492C10.3195 0.17328 9.36528 0 8.37168 0C8.09616 0 7.824 0.0144 7.55472 0.0408C7.54032 0.04224 7.5264 0.04416 7.512 0.0456C6.82656 0.11568 6.16512 0.2664 5.5392 0.49152C4.74624 0.77616 4.00992 1.17696 3.34848 1.67424C2.71488 2.14992 2.14944 2.71488 1.67424 3.34848C1.28688 3.86352 0.9576 4.42512 0.69744 5.02272C0.46368 5.55408 0.2856 6.11424 0.16752 6.69696C0.05808 7.23792 0 7.7976 0 8.3712C0 8.9448 0.0576 9.50448 0.16752 10.0454C0.2856 10.6282 0.46368 11.1883 0.69744 11.7197C0.9576 12.3173 1.28688 12.8794 1.67424 13.3939C1.93392 13.7405 2.22096 14.0659 2.53056 14.3674C2.78784 14.6184 3.06048 14.8526 3.34848 15.0682C4.7472 16.1198 6.4872 16.7424 8.3712 16.7424C10.2552 16.7424 11.9952 16.1194 13.3939 15.0682C13.6819 14.8531 13.955 14.6184 14.2118 14.3674C14.5214 14.0659 14.809 13.7405 15.0682 13.3939C15.456 12.8789 15.7848 12.3173 16.045 11.7197C16.1645 11.448 16.2691 11.1686 16.3589 10.8826H14.581L14.5819 10.883Z" fill="#799088"/>
</g>
<defs>
<clipPath id="clip0_569_2639">
<rect width="16.3598" height="16.7429" fill="white"/>
</clipPath>
</defs>
</svg>
