<svg width="40" height="40" viewBox="0 0 40 40" fill="none" xmlns="http://www.w3.org/2000/svg">
<path d="M9 8C8.45 8 8 8.45 8 9V15C8 15.55 8.45 16 9 16H15C15.55 16 16 15.55 16 15V9C16 8.45 15.55 8 15 8H9ZM6 9C6 7.34375 7.34375 6 9 6H15C16.6562 6 18 7.34375 18 9V15C18 16.6562 16.6562 18 15 18H9C7.34375 18 6 16.6562 6 15V9ZM9 24C8.45 24 8 24.45 8 25V31C8 31.55 8.45 32 9 32H15C15.55 32 16 31.55 16 31V25C16 24.45 15.55 24 15 24H9ZM6 25C6 23.3438 7.34375 22 9 22H15C16.6562 22 18 23.3438 18 25V31C18 32.6562 16.6562 34 15 34H9C7.34375 34 6 32.6562 6 31V25ZM31 8H25C24.45 8 24 8.45 24 9V15C24 15.55 24.45 16 25 16H31C31.55 16 32 15.55 32 15V9C32 8.45 31.55 8 31 8ZM25 6H31C32.6562 6 34 7.34375 34 9V15C34 16.6562 32.6562 18 31 18H25C23.3438 18 22 16.6562 22 15V9C22 7.34375 23.3438 6 25 6ZM25 24C24.45 24 24 24.45 24 25V31C24 31.55 24.45 32 25 32H31C31.55 32 32 31.55 32 31V25C32 24.45 31.55 24 31 24H25ZM22 25C22 23.3438 23.3438 22 25 22H31C32.6562 22 34 23.3438 34 25V31C34 32.6562 32.6562 34 31 34H25C23.3438 34 22 32.6562 22 31V25Z" fill="#00382F"/>
</svg>
