<svg width="40" height="40" viewBox="0 0 40 40" fill="none" xmlns="http://www.w3.org/2000/svg">
<path d="M15.875 5.26224C16.2563 4.86849 16.6187 4.51224 16.9812 4.18099C17.5312 4.73724 18.0625 5.35599 18.6 6.01224C19.4 6.98724 20.35 8.26849 21.2688 9.79349C21.6125 10.3622 22.2188 10.7247 22.8813 10.756C23.5438 10.7872 24.1812 10.4935 24.5812 9.96224C24.6625 9.85599 24.7437 9.74974 24.8188 9.64349C25.225 9.09974 25.6 8.59974 26.0063 8.18099C27.0688 9.24349 27.9813 10.6497 28.825 12.0122C30.425 14.5997 32 18.131 32 21.9997C32 28.6247 26.625 33.9997 20 33.9997C13.375 33.9997 8 28.6247 8 21.9997C8 16.8997 10.3125 12.3747 12.6562 9.10599C13.825 7.47474 14.9937 6.16849 15.875 5.26224ZM17.0375 2.12474C16.5813 2.11224 16.1187 2.26224 15.7625 2.58099C15.3062 2.98724 14.8688 3.41849 14.4438 3.86224C13.5125 4.81849 12.275 6.20599 11.0312 7.93099C8.56875 11.3685 6 16.2997 6 21.9935C6 29.7247 12.2688 35.9935 20 35.9935C27.7313 35.9935 34 29.731 34 21.9997C34 17.606 32.225 13.706 30.525 10.9622C29.65 9.54974 28.575 7.86849 27.2437 6.59349C26.8875 6.24974 26.4875 6.00599 26 6.00599C25.5312 6.00599 25.1313 6.25599 24.775 6.58724C24.1687 7.15599 23.6375 7.88099 23.1938 8.47474C23.1187 8.57474 23.05 8.66849 22.9813 8.76224C22 7.14349 20.9937 5.78724 20.15 4.74974C19.5625 4.03099 18.95 3.31849 18.2875 2.66224C17.95 2.32474 17.5 2.14349 17.0375 2.13099V2.12474ZM14 23.1747C14 20.6997 15.7125 18.5685 16.825 17.456C17.85 18.756 19.7875 21.2185 20.85 22.5747C21.6313 23.5685 23.1187 23.5935 23.9375 22.6372L25.3813 20.956C27.3062 24.7935 24.375 28.9935 20.1 28.9935C18.3375 28.9935 16.8125 28.431 15.7375 27.4497C14.675 26.481 13.9875 25.0497 13.9875 23.1685L14 23.1747ZM18.3438 16.1497C17.675 15.2997 16.375 15.0997 15.5188 15.9372C14.3438 17.081 12 19.7685 12 23.1747C12 25.581 12.8937 27.5622 14.4 28.9372C15.8937 30.2997 17.925 30.9997 20.1062 30.9997C25.725 30.9997 30 25.2372 27.0438 19.8185C26.3875 18.5435 24.7937 18.5747 23.9937 19.506L22.4188 21.3372C21.3375 19.956 19.35 17.4372 18.3375 16.1497H18.3438Z" fill="#73A955"/>
</svg>
