<svg width="40" height="40" viewBox="0 0 40 40" fill="none" xmlns="http://www.w3.org/2000/svg">
<path d="M6 7C6 6.45 5.55 6 5 6C4.45 6 4 6.45 4 7V29C4 31.7625 6.2375 34 9 34H35C35.55 34 36 33.55 36 33C36 32.45 35.55 32 35 32H9C7.34375 32 6 30.6562 6 29V7ZM24 13C24 13.55 24.45 14 25 14H30.5875L24 20.5875L18.7063 15.2937C18.3188 14.9062 17.6812 14.9062 17.2937 15.2937L10.2937 22.2938C9.90625 22.6813 9.90625 23.3187 10.2937 23.7062C10.6812 24.0938 11.3188 24.0938 11.7063 23.7062L18 17.4125L23.2938 22.7062C23.6813 23.0938 24.3187 23.0938 24.7062 22.7062L32 15.4125V21C32 21.55 32.45 22 33 22C33.55 22 34 21.55 34 21V13C34 12.45 33.55 12 33 12H25C24.45 12 24 12.45 24 13Z" fill="#DBFF6D"/>
</svg>
