<svg width="40" height="40" viewBox="0 0 40 40" fill="none" xmlns="http://www.w3.org/2000/svg">
<path d="M13 6H14V13.6062C10.4125 15.6812 8 19.5562 8 24C8 30.625 13.375 36 20 36C26.625 36 32 30.625 32 24C32 19.5562 29.5875 15.6812 26 13.6062V6H27C27.55 6 28 5.55 28 5C28 4.45 27.55 4 27 4H13C12.45 4 12 4.45 12 5C12 5.55 12.45 6 13 6ZM16 14.2V6H24V14.2C24 14.575 24.2125 14.9187 24.5438 15.0875C27.7812 16.7437 30 20.1125 30 24H26.7687C25.1375 24 23.5375 23.5562 22.1375 22.7188L21.825 22.5312C20.1562 21.5312 18.2437 21 16.2937 21C14.625 21 12.9812 21.3875 11.4875 22.1375L10.0625 22.85C10.45 19.4563 12.5375 16.5812 15.45 15.0875C15.7875 14.9187 15.9938 14.575 15.9938 14.2H16ZM10.0563 25.0875L10.4437 24.8937L12.3875 23.925C13.6 23.3187 14.9438 23 16.3 23C17.8875 23 19.4375 23.4312 20.8 24.2437L21.1125 24.4312C22.825 25.4562 24.7812 26 26.775 26H29.8062C28.875 30.5625 24.8375 34 20 34C14.8438 34 10.6 30.1 10.0563 25.0875Z" fill="#73A955"/>
</svg>
