<svg width="40" height="40" viewBox="0 0 40 40" fill="none" xmlns="http://www.w3.org/2000/svg">
<path d="M23.5 23C25.4312 23 27 24.5688 27 26.5C27 27.0375 26.875 27.5438 26.6562 28H27.0063L32.925 24.475L33.125 24.3625C33.5938 24.125 34.1125 24 34.6437 24H34.725C36.5312 24 37.9938 25.4625 37.9938 27.2687C37.9938 28.2375 37.5625 29.1438 36.8375 29.7625L36.5062 30.0063L29.0312 34.8688C27.8937 35.6063 26.5688 36 25.2125 36H3C2.45 36 2 35.55 2 35C2 34.45 2.45 34 3 34H25.2188C26.1875 34 27.1313 33.7188 27.9438 33.1937L35.4188 28.3312L35.55 28.2375C35.8312 28 36 27.6437 36 27.2687C36 26.5687 35.4313 26 34.7313 26H34.65C34.4688 26 34.2875 26.0375 34.1188 26.1063L33.9562 26.1875L27.8 29.8563C27.6437 29.95 27.4688 29.9937 27.2875 29.9937L18 30C17.45 30 17 29.55 17 29C17 28.45 17.45 28 18 28H23.5C24.3312 28 25 27.3312 25 26.5C25 25.6688 24.3312 25 23.5 25H14.2125C13.6187 25 13.0437 25.175 12.55 25.5063L7.55625 28.8312C7.39375 28.9437 7.2 29 7 29H3C2.45 29 2 28.55 2 28C2 27.45 2.45 27 3 27H6.7L11.4375 23.8375C12.2563 23.2875 13.225 23 14.2125 23H23.5ZM19.2125 1.0125C19.625 1.06875 19.9938 1.3 20.2313 1.6375L20.3375 1.8125L22.5375 6.125L27.3188 6.8875L27.5312 6.9375C28.4937 7.2375 28.8938 8.4375 28.2875 9.25625L28.1437 9.425L24.725 12.8438L25.4813 17.6313L25.5 17.8375C25.5063 18.2563 25.3375 18.6562 25.0375 18.9438L24.875 19.075C24.4188 19.4062 23.8188 19.45 23.3188 19.2L19 17L14.6875 19.2C14.25 19.4188 13.7375 19.4125 13.3062 19.1875L13.1313 19.075C12.6813 18.7438 12.4375 18.1875 12.525 17.6313L13.2812 12.8438L9.8625 9.425C9 8.55625 9.49375 7.075 10.6875 6.8875L15.4688 6.125L17.675 1.8125L17.7812 1.6375C18.05 1.24375 18.5063 1 19 1H19.0063L19.2125 1.0125ZM17.0125 7.49375C16.8687 7.775 16.5938 7.975 16.2812 8.025L11.9688 8.7125L15.0562 11.8L15.2 11.9875C15.2812 12.1188 15.3313 12.275 15.3438 12.4312L15.3375 12.6687L14.6562 16.9875L18.55 15.0063L18.7687 14.925C19 14.8688 19.2375 14.9 19.4562 15.0063L23.35 16.9875L22.6688 12.6687C22.6188 12.3562 22.725 12.0312 22.95 11.8062L26.0312 8.71875L21.7188 8.03125C21.4062 7.98125 21.1312 7.78125 20.9875 7.5L19 3.6L17.0125 7.49375Z" fill="#00382F"/>
</svg>
