<svg width="1073" height="1099" viewBox="0 0 1073 1099" fill="none" xmlns="http://www.w3.org/2000/svg">
<g>
<mask id="path-1-inside-1_569_2634" fill="white">
<path d="M956.447 714.382C948.765 733.381 939.792 751.75 929.654 769.332C913.44 797.405 894.172 823.588 872.322 847.251C861.995 858.531 851.071 869.18 839.642 879.232C835.958 882.477 832.18 885.596 828.402 888.715L823.68 879.232L796.226 824.281L768.772 769.332L741.318 714.382L713.864 659.432L686.41 604.482L658.956 549.532L631.502 494.582L604.049 439.632L576.595 384.682L549.141 329.732L521.687 384.682L494.233 439.632L521.687 494.582L549.141 549.532L576.595 604.482L604.049 659.432L631.502 714.382L658.956 769.332L686.41 824.281L713.864 879.232L741.318 934.182L745.6 942.72C730.991 950.03 715.911 956.521 700.42 962.224L686.41 934.182L658.956 879.232L631.502 824.281L604.049 769.332L576.595 714.382L549.141 659.432L521.687 604.482L494.233 549.532L466.779 494.582L439.325 549.532L411.871 604.482L439.325 659.432L466.779 714.382L494.233 769.332L521.687 824.281L549.141 879.232L576.595 934.182L602.38 985.792C584.906 987.903 567.149 989.1 549.109 989.1L521.655 934.182L494.201 879.232L466.748 824.281L439.294 769.332L411.84 714.382L384.386 659.432L356.932 714.382L329.478 769.332L356.932 824.281L384.386 879.232L411.84 934.182L431.265 973.062C366.44 955.04 307.628 922.555 258.577 879.232C247.148 869.18 236.223 858.499 225.896 847.251C204.047 823.557 184.779 797.405 168.564 769.332C148.918 735.303 133.649 698.375 123.637 659.432C114.57 624.3 109.784 587.499 109.784 549.532C109.784 511.564 114.57 474.731 123.637 439.632C133.68 400.625 148.887 363.729 168.596 329.732C192.492 288.361 222.968 251.214 258.545 219.831C297.176 185.74 341.883 158.485 390.746 139.612L549.078 329.763L707.347 139.612C756.21 158.485 800.917 185.74 839.547 219.831C875.124 251.214 905.601 288.361 929.497 329.732C939.698 347.313 948.639 365.682 956.352 384.682H1073C1067.11 365.903 1060.25 347.565 1052.41 329.732C1035.35 290.504 1013.75 253.608 988.34 219.831C957.14 178.241 920.146 141.156 878.524 109.932C835.14 77.2892 786.844 50.9485 734.832 32.2957C676.871 11.3744 614.281 0 549.109 0C531.038 0 513.186 0.945241 495.524 2.67818C494.579 2.77271 493.666 2.89874 492.722 2.99326C447.763 7.59343 404.378 17.487 363.323 32.2642C311.312 50.9485 263.016 77.2577 219.631 109.9C178.072 141.124 140.985 178.209 109.816 219.8C84.4081 253.608 62.8102 290.473 45.746 329.7C30.4134 364.579 18.7329 401.349 10.9879 439.6C3.80954 475.11 0 511.848 0 549.5C0 587.152 3.77806 623.89 10.9879 659.4C18.7329 697.651 30.4134 734.421 45.746 769.3C62.8102 808.528 84.4081 845.423 109.816 879.2C126.848 901.949 145.676 923.311 165.983 943.098C182.858 959.577 200.741 974.953 219.631 989.1C311.375 1058.13 425.504 1099 549.078 1099C672.652 1099 786.781 1058.1 878.524 989.1C897.415 974.984 915.329 959.577 932.173 943.098C952.48 923.311 971.339 901.949 988.34 879.2C1013.78 845.392 1035.35 808.528 1052.41 769.3C1060.25 751.466 1067.11 733.129 1073 714.35H956.384L956.447 714.382Z"/>
</mask>
<path d="M956.447 714.382C948.765 733.381 939.792 751.75 929.654 769.332C913.44 797.405 894.172 823.588 872.322 847.251C861.995 858.531 851.071 869.18 839.642 879.232C835.958 882.477 832.18 885.596 828.402 888.715L823.68 879.232L796.226 824.281L768.772 769.332L741.318 714.382L713.864 659.432L686.41 604.482L658.956 549.532L631.502 494.582L604.049 439.632L576.595 384.682L549.141 329.732L521.687 384.682L494.233 439.632L521.687 494.582L549.141 549.532L576.595 604.482L604.049 659.432L631.502 714.382L658.956 769.332L686.41 824.281L713.864 879.232L741.318 934.182L745.6 942.72C730.991 950.03 715.911 956.521 700.42 962.224L686.41 934.182L658.956 879.232L631.502 824.281L604.049 769.332L576.595 714.382L549.141 659.432L521.687 604.482L494.233 549.532L466.779 494.582L439.325 549.532L411.871 604.482L439.325 659.432L466.779 714.382L494.233 769.332L521.687 824.281L549.141 879.232L576.595 934.182L602.38 985.792C584.906 987.903 567.149 989.1 549.109 989.1L521.655 934.182L494.201 879.232L466.748 824.281L439.294 769.332L411.84 714.382L384.386 659.432L356.932 714.382L329.478 769.332L356.932 824.281L384.386 879.232L411.84 934.182L431.265 973.062C366.44 955.04 307.628 922.555 258.577 879.232C247.148 869.18 236.223 858.499 225.896 847.251C204.047 823.557 184.779 797.405 168.564 769.332C148.918 735.303 133.649 698.375 123.637 659.432C114.57 624.3 109.784 587.499 109.784 549.532C109.784 511.564 114.57 474.731 123.637 439.632C133.68 400.625 148.887 363.729 168.596 329.732C192.492 288.361 222.968 251.214 258.545 219.831C297.176 185.74 341.883 158.485 390.746 139.612L549.078 329.763L707.347 139.612C756.21 158.485 800.917 185.74 839.547 219.831C875.124 251.214 905.601 288.361 929.497 329.732C939.698 347.313 948.639 365.682 956.352 384.682H1073C1067.11 365.903 1060.25 347.565 1052.41 329.732C1035.35 290.504 1013.75 253.608 988.34 219.831C957.14 178.241 920.146 141.156 878.524 109.932C835.14 77.2892 786.844 50.9485 734.832 32.2957C676.871 11.3744 614.281 0 549.109 0C531.038 0 513.186 0.945241 495.524 2.67818C494.579 2.77271 493.666 2.89874 492.722 2.99326C447.763 7.59343 404.378 17.487 363.323 32.2642C311.312 50.9485 263.016 77.2577 219.631 109.9C178.072 141.124 140.985 178.209 109.816 219.8C84.4081 253.608 62.8102 290.473 45.746 329.7C30.4134 364.579 18.7329 401.349 10.9879 439.6C3.80954 475.11 0 511.848 0 549.5C0 587.152 3.77806 623.89 10.9879 659.4C18.7329 697.651 30.4134 734.421 45.746 769.3C62.8102 808.528 84.4081 845.423 109.816 879.2C126.848 901.949 145.676 923.311 165.983 943.098C182.858 959.577 200.741 974.953 219.631 989.1C311.375 1058.13 425.504 1099 549.078 1099C672.652 1099 786.781 1058.1 878.524 989.1C897.415 974.984 915.329 959.577 932.173 943.098C952.48 923.311 971.339 901.949 988.34 879.2C1013.78 845.392 1035.35 808.528 1052.41 769.3C1060.25 751.466 1067.11 733.129 1073 714.35H956.384L956.447 714.382Z" fill="white" fill-opacity="0.1" stroke="#CED0D1" stroke-width="2" mask="url(#path-1-inside-1_569_2634)" filter="url(#ring-bg)"/>
</g>
<defs>
<filter id="ring-bg" x="-6%" y="-6%" width="112%" height="112%" color-interpolation-filters="sRGB">
  <feGaussianBlur in="SourceGraphic" stdDeviation="20" result="blur"/>
  <feColorMatrix in="blur" type="matrix" values="1 0 0 0 0  0 1 0 0 0  0 0 1 0 0  0 0 0 0.25 0" result="glow"/>
  <feMerge>
    <feMergeNode in="glow"/>
    <feMergeNode in="SourceGraphic"/>
  </feMerge>
</filter></defs>
</svg>
