<svg width="48" height="48" viewBox="0 0 48 48" fill="none" xmlns="http://www.w3.org/2000/svg">
<path d="M22.1319 5.39422C23.3319 4.88422 24.6819 4.88422 25.8819 5.39422L39.1344 11.0117C40.7844 11.7092 42.0144 13.3367 42.0069 15.3017C41.9694 22.7417 38.9094 36.3542 25.9794 42.5417C24.7269 43.1417 23.2719 43.1417 22.0269 42.5417C9.09687 36.3542 6.04437 22.7417 6.00687 15.3017C5.99937 13.3367 7.22937 11.7092 8.87937 11.0117L22.1319 5.39422ZM24.9444 7.59922C24.3444 7.34422 23.6694 7.34422 23.0694 7.59922L9.81687 13.2242C8.96937 13.5842 8.40687 14.3867 8.40687 15.2942C8.44437 22.3442 11.3544 34.7792 23.0619 40.3817C23.6544 40.6667 24.3519 40.6667 24.9444 40.3817C36.6519 34.7792 39.5694 22.3517 39.6069 15.2942C39.6144 14.3867 39.0444 13.5842 38.1969 13.2242L24.9444 7.59922ZM29.0319 17.5667C29.4219 17.0342 30.1719 16.9142 30.7044 17.3042C31.2369 17.6942 31.3569 18.4442 30.9669 18.9767L23.0544 29.8667C22.8444 30.1517 22.5219 30.3317 22.1694 30.3542C21.8169 30.3767 21.4719 30.2492 21.2244 29.9942L17.1444 25.7717C16.6869 25.2917 16.6944 24.5342 17.1744 24.0767C17.6544 23.6192 18.4119 23.6342 18.8694 24.1067L21.9594 27.3017L29.0394 17.5667H29.0319Z" fill="#DBFF6D"/>
</svg>
