<svg width="1680" height="2053" viewBox="0 0 1680 2053" fill="none" xmlns="http://www.w3.org/2000/svg">
<mask id="path-1-inside-1_569_2520" fill="white">
<path d="M1617.1 1334.51C1602.74 1370 1585.96 1404.32 1567.01 1437.16C1536.7 1489.6 1500.68 1538.51 1459.83 1582.72C1440.52 1603.79 1420.1 1623.68 1398.73 1642.46C1391.84 1648.52 1384.78 1654.35 1377.72 1660.18L1368.89 1642.46L1317.56 1539.81L1266.24 1437.16L1214.91 1334.51L1163.59 1231.86L1112.26 1129.21L1060.94 1026.56L1009.61 923.909L958.284 821.259L906.958 718.609L855.632 615.959L804.307 718.609L752.981 821.259L804.307 923.909L855.632 1026.56L906.958 1129.21L958.284 1231.86L1009.61 1334.51L1060.94 1437.16L1112.26 1539.81L1163.59 1642.46L1214.91 1745.11L1222.92 1761.06C1195.61 1774.72 1167.41 1786.84 1138.45 1797.49L1112.26 1745.11L1060.94 1642.46L1009.61 1539.81L958.284 1437.16L906.958 1334.51L855.632 1231.86L804.307 1129.21L752.981 1026.56L701.655 923.909L650.329 1026.56L599.004 1129.21L650.329 1231.86L701.655 1334.51L752.981 1437.16L804.307 1539.81L855.632 1642.46L906.958 1745.11L955.164 1841.52C922.497 1845.46 889.3 1847.7 855.573 1847.7L804.248 1745.11L752.922 1642.46L701.596 1539.81L650.27 1437.16L598.945 1334.51L547.619 1231.86L496.293 1334.51L444.968 1437.16L496.293 1539.81L547.619 1642.46L598.945 1745.11L635.261 1817.74C514.069 1784.07 404.119 1723.39 312.415 1642.46C291.049 1623.68 270.625 1603.73 251.319 1582.72C210.47 1538.46 174.448 1489.6 144.135 1437.16C107.407 1373.59 78.8598 1304.61 60.1423 1231.86C43.1907 1166.23 34.244 1097.48 34.244 1026.56C34.244 955.634 43.1907 886.828 60.1423 821.259C78.9186 748.392 107.348 679.468 144.194 615.959C188.869 538.677 245.845 469.282 312.357 410.659C384.577 346.973 468.158 296.061 559.509 260.804L855.515 616.018L1151.4 260.804C1242.75 296.061 1326.33 346.973 1398.55 410.659C1465.07 469.282 1522.04 538.677 1566.72 615.959C1585.79 648.802 1602.5 683.117 1616.92 718.609H1835C1823.99 683.529 1811.16 649.273 1796.51 615.959C1764.6 542.68 1724.23 473.756 1676.73 410.659C1618.4 332.965 1549.24 263.688 1471.42 205.359C1390.31 144.381 1300.02 95.1749 1202.79 60.3304C1094.43 21.2481 977.413 0 855.573 0C821.788 0 788.414 1.76577 755.394 5.00301C753.628 5.17959 751.921 5.41502 750.156 5.5916C666.104 14.185 584.995 32.6667 508.242 60.2716C411.005 95.1749 320.715 144.322 239.606 205.3C161.911 263.629 92.5741 332.906 34.3029 410.6C-13.1969 473.756 -53.5747 542.621 -85.4767 615.9C-114.141 681.057 -135.978 749.745 -150.458 821.2C-163.878 887.534 -171 956.164 -171 1026.5C-171 1096.84 -163.937 1165.47 -150.458 1231.8C-135.978 1303.25 -114.141 1371.94 -85.4767 1437.1C-53.5747 1510.38 -13.1969 1579.3 34.3029 1642.4C66.146 1684.9 101.344 1724.8 139.309 1761.77C170.858 1792.55 204.29 1821.27 239.606 1847.7C411.123 1976.66 624.49 2053 855.515 2053C1086.54 2053 1299.91 1976.6 1471.42 1847.7C1506.74 1821.33 1540.23 1792.55 1571.72 1761.77C1609.68 1724.8 1644.94 1684.9 1676.73 1642.4C1724.28 1579.24 1764.6 1510.38 1796.51 1437.1C1811.16 1403.79 1823.99 1369.53 1835 1334.45H1616.98L1617.1 1334.51Z"/>
</mask>
<path d="M1617.1 1334.51C1602.74 1370 1585.96 1404.32 1567.01 1437.16C1536.7 1489.6 1500.68 1538.51 1459.83 1582.72C1440.52 1603.79 1420.1 1623.68 1398.73 1642.46C1391.84 1648.52 1384.78 1654.35 1377.72 1660.18L1368.89 1642.46L1317.56 1539.81L1266.24 1437.16L1214.91 1334.51L1163.59 1231.86L1112.26 1129.21L1060.94 1026.56L1009.61 923.909L958.284 821.259L906.958 718.609L855.632 615.959L804.307 718.609L752.981 821.259L804.307 923.909L855.632 1026.56L906.958 1129.21L958.284 1231.86L1009.61 1334.51L1060.94 1437.16L1112.26 1539.81L1163.59 1642.46L1214.91 1745.11L1222.92 1761.06C1195.61 1774.72 1167.41 1786.84 1138.45 1797.49L1112.26 1745.11L1060.94 1642.46L1009.61 1539.81L958.284 1437.16L906.958 1334.51L855.632 1231.86L804.307 1129.21L752.981 1026.56L701.655 923.909L650.329 1026.56L599.004 1129.21L650.329 1231.86L701.655 1334.51L752.981 1437.16L804.307 1539.81L855.632 1642.46L906.958 1745.11L955.164 1841.52C922.497 1845.46 889.3 1847.7 855.573 1847.7L804.248 1745.11L752.922 1642.46L701.596 1539.81L650.27 1437.16L598.945 1334.51L547.619 1231.86L496.293 1334.51L444.968 1437.16L496.293 1539.81L547.619 1642.46L598.945 1745.11L635.261 1817.74C514.069 1784.07 404.119 1723.39 312.415 1642.46C291.049 1623.68 270.625 1603.73 251.319 1582.72C210.47 1538.46 174.448 1489.6 144.135 1437.16C107.407 1373.59 78.8598 1304.61 60.1423 1231.86C43.1907 1166.23 34.244 1097.48 34.244 1026.56C34.244 955.634 43.1907 886.828 60.1423 821.259C78.9186 748.392 107.348 679.468 144.194 615.959C188.869 538.677 245.845 469.282 312.357 410.659C384.577 346.973 468.158 296.061 559.509 260.804L855.515 616.018L1151.4 260.804C1242.75 296.061 1326.33 346.973 1398.55 410.659C1465.07 469.282 1522.04 538.677 1566.72 615.959C1585.79 648.802 1602.5 683.117 1616.92 718.609H1835C1823.99 683.529 1811.16 649.273 1796.51 615.959C1764.6 542.68 1724.23 473.756 1676.73 410.659C1618.4 332.965 1549.24 263.688 1471.42 205.359C1390.31 144.381 1300.02 95.1749 1202.79 60.3304C1094.43 21.2481 977.413 0 855.573 0C821.788 0 788.414 1.76577 755.394 5.00301C753.628 5.17959 751.921 5.41502 750.156 5.5916C666.104 14.185 584.995 32.6667 508.242 60.2716C411.005 95.1749 320.715 144.322 239.606 205.3C161.911 263.629 92.5741 332.906 34.3029 410.6C-13.1969 473.756 -53.5747 542.621 -85.4767 615.9C-114.141 681.057 -135.978 749.745 -150.458 821.2C-163.878 887.534 -171 956.164 -171 1026.5C-171 1096.84 -163.937 1165.47 -150.458 1231.8C-135.978 1303.25 -114.141 1371.94 -85.4767 1437.1C-53.5747 1510.38 -13.1969 1579.3 34.3029 1642.4C66.146 1684.9 101.344 1724.8 139.309 1761.77C170.858 1792.55 204.29 1821.27 239.606 1847.7C411.123 1976.66 624.49 2053 855.515 2053C1086.54 2053 1299.91 1976.6 1471.42 1847.7C1506.74 1821.33 1540.23 1792.55 1571.72 1761.77C1609.68 1724.8 1644.94 1684.9 1676.73 1642.4C1724.28 1579.24 1764.6 1510.38 1796.51 1437.1C1811.16 1403.79 1823.99 1369.53 1835 1334.45H1616.98L1617.1 1334.51Z" fill="black" fill-opacity="0.1" stroke="#CED0D1" stroke-opacity="0.7" stroke-width="2" mask="url(#path-1-inside-1_569_2520)"/>
</svg>
