<svg width="18" height="18" viewBox="0 0 18 18" fill="none" xmlns="http://www.w3.org/2000/svg">
<path d="M16.5 4.5H15V3C15 1.3425 13.6575 0 12 0H3C1.3425 0 0 1.3425 0 3V15C0 16.6575 1.3425 18 3 18H16.5C17.325 18 18 17.325 18 16.5V6C18 5.175 17.325 4.5 16.5 4.5ZM3 1.5H12C12.825 1.5 13.5 2.175 13.5 3V4.5H3C2.175 4.5 1.5 3.825 1.5 3C1.5 2.175 2.175 1.5 3 1.5ZM16.5 16.5H3C2.175 16.5 1.5 15.825 1.5 15V5.8725C1.95 6.4275 2.8125 6.75 3.75 6.75H16.5V16.5ZM12 11.25C11.175 11.25 10.5 10.575 10.5 9.75C10.5 8.925 11.175 8.25 12 8.25C12.825 8.25 13.5 8.925 13.5 9.75C13.5 10.575 12.825 11.25 12 11.25Z" fill="#00382F"/>
</svg>
