<svg width="400.885" height="64.1408" viewBox="640 136 400.885 64.1408" fill="none" xmlns="http://www.w3.org/2000/svg">
  <defs>
    <clipPath id="clipLogo">
      <rect width="400.885" height="64.1408" fill="white" transform="translate(640 136)"/>
    </clipPath>
  </defs>
  <g clip-path="url(#clipLogo)">
<path d="M703.498 161.657C703.046 159.425 702.362 157.278 701.468 155.242C700.472 152.951 699.212 150.8 697.724 148.827C695.902 146.399 693.742 144.235 691.31 142.412C688.776 140.507 685.955 138.972 682.917 137.881C679.531 136.661 675.875 135.998 672.068 135.998C671.012 135.998 669.968 136.054 668.938 136.153C668.884 136.157 668.83 136.166 668.774 136.171C666.148 136.439 663.614 137.017 661.216 137.879C658.178 138.97 655.357 140.504 652.823 142.41C650.396 144.233 648.231 146.397 646.409 148.825C644.924 150.798 643.664 152.949 642.667 155.24C641.771 157.276 641.09 159.422 640.637 161.654C640.217 163.727 639.996 165.871 639.996 168.069C639.996 170.267 640.217 172.412 640.637 174.484C641.09 176.716 641.774 178.862 642.667 180.899C643.664 183.189 644.924 185.34 646.409 187.313C647.403 188.641 648.503 189.887 649.689 191.044C650.675 192.007 651.719 192.905 652.823 193.728C658.183 197.756 664.847 200.143 672.065 200.143C679.283 200.143 685.948 197.758 691.307 193.728C692.41 192.905 693.456 192.005 694.439 191.044C695.625 189.89 696.725 188.641 697.72 187.313C699.205 185.34 700.465 183.189 701.464 180.899C702.359 178.862 703.041 176.716 703.493 174.484C703.914 172.412 704.135 170.267 704.135 168.069C704.135 165.871 703.914 163.727 703.493 161.654M696.917 174.484C696.334 176.756 695.441 178.912 694.293 180.899C693.346 182.537 692.221 184.064 690.945 185.446C690.342 186.103 689.703 186.726 689.037 187.313C688.823 187.502 688.603 187.685 688.382 187.867L688.106 187.313L686.501 184.107L684.897 180.901L683.293 177.695L681.689 174.488L680.084 171.282L678.48 168.076L676.876 164.87L675.272 161.663L673.667 158.457L672.063 155.251L670.459 158.457L668.855 161.663L670.459 164.87L672.063 168.076L673.667 171.282L675.272 174.488L676.876 177.695L678.48 180.901L680.084 184.107L681.689 187.313L683.293 190.52L683.543 191.019C682.69 191.447 681.808 191.825 680.906 192.158L680.087 190.522L678.482 187.316L676.878 184.109L675.274 180.903L673.67 177.697L672.065 174.491L670.461 171.284L668.857 168.078L667.253 164.872L665.648 168.078L664.044 171.284L665.648 174.491L667.253 177.697L668.857 180.903L670.461 184.109L672.065 187.316L673.67 190.522L675.175 193.535C674.156 193.658 673.118 193.728 672.065 193.728L670.463 190.522L668.859 187.316L667.255 184.109L665.651 180.903L664.046 177.697L662.442 174.491L660.838 177.697L659.234 180.903L660.838 184.109L662.442 187.316L664.046 190.522L665.18 192.79C661.394 191.737 657.958 189.842 655.094 187.313C654.428 186.726 653.789 186.103 653.186 185.446C651.91 184.064 650.783 182.537 649.838 180.899C648.69 178.914 647.797 176.759 647.214 174.484C646.685 172.434 646.406 170.285 646.406 168.069C646.406 165.853 646.685 163.704 647.214 161.654C647.801 159.377 648.69 157.224 649.84 155.24C651.235 152.825 653.015 150.656 655.094 148.825C657.348 146.836 659.963 145.245 662.816 144.143L672.063 155.24L681.308 144.143C684.161 145.245 686.774 146.836 689.03 148.825C691.109 150.656 692.889 152.823 694.284 155.24C695.436 157.224 696.325 159.377 696.91 161.654C697.439 163.704 697.718 165.853 697.718 168.069C697.718 170.285 697.439 172.434 696.91 174.484" fill="white"/>
<path d="M720.175 168.283C720.175 164.289 720.904 160.824 722.359 157.886C723.815 154.95 725.883 152.682 728.563 151.084C731.24 149.487 734.435 148.688 738.148 148.688C742.751 148.688 746.36 149.815 748.968 152.072C751.576 154.326 753.184 157.476 753.796 161.517L745.267 162.645C744.891 160.577 744.173 158.932 743.116 157.71C742.058 156.489 740.377 155.877 738.076 155.877C734.928 155.877 732.682 157.017 731.344 159.294C730.005 161.574 729.334 164.499 729.334 168.069C729.334 171.64 729.991 174.59 731.308 176.916C732.624 179.243 734.878 180.406 738.073 180.406C740.422 180.406 742.198 179.772 743.395 178.503C744.594 177.234 745.357 175.519 745.685 173.357H754.285C753.72 177.821 752.064 181.311 749.314 183.824C746.565 186.339 742.747 187.595 737.86 187.595C732.174 187.595 727.804 185.867 724.749 182.413C721.693 178.959 720.168 174.248 720.168 168.281" fill="white"/>
<path d="M756.363 168.211C756.363 164.17 757.115 160.694 758.62 157.78C760.123 154.866 762.249 152.623 764.999 151.048C767.748 149.475 771.002 148.688 774.762 148.688C780.495 148.688 784.959 150.391 788.154 153.798C791.349 157.206 792.946 161.916 792.946 167.93C792.946 173.944 791.313 178.845 788.048 182.343C784.781 185.844 780.283 187.595 774.55 187.595C768.817 187.595 764.295 185.892 761.122 182.485C757.95 179.079 756.363 174.32 756.363 168.211ZM765.528 168.072C765.528 171.784 766.243 174.768 767.679 177.022C769.112 179.277 771.425 180.406 774.622 180.406C777.819 180.406 780.144 179.279 781.599 177.022C783.055 174.768 783.784 171.784 783.784 168.072C783.784 164.359 783.055 161.4 781.599 159.191C780.141 156.984 777.817 155.879 774.622 155.879C771.427 155.879 769.17 156.984 767.715 159.191C766.257 161.4 765.53 164.361 765.53 168.072" fill="white"/>
<path d="M795.766 136H804.718V143.965H795.766V136ZM795.835 149.815H804.716V186.467H795.835V149.815Z" fill="white"/>
<path d="M808.945 149.815H817.615V154.891C819.448 152.589 821.374 150.978 823.395 150.063C825.415 149.147 827.506 148.688 829.668 148.688C833.709 148.688 836.762 149.829 838.83 152.106C840.898 154.385 841.93 157.663 841.93 161.938V186.468H833.05V163.63C833.05 160.905 832.543 158.968 831.535 157.816C830.525 156.666 828.986 156.088 826.918 156.088C825.744 156.088 824.603 156.3 823.501 156.723C822.396 157.146 821.397 157.805 820.506 158.696C819.613 159.495 818.942 160.352 818.497 161.268C818.049 162.183 817.826 163.394 817.826 164.897V186.465H808.945V149.815Z" fill="white"/>
<path d="M846.125 149.815H854.794V154.468C857.661 150.616 861.513 148.688 866.355 148.688C871.197 148.688 875.236 150.427 877.774 153.903C880.312 157.382 881.58 162.01 881.58 167.79C881.58 171.831 880.935 175.344 879.643 178.327C878.349 181.311 876.529 183.603 874.18 185.199C871.829 186.796 869.01 187.595 865.723 187.595C863.702 187.595 861.763 187.194 859.909 186.396C858.052 185.597 856.419 184.281 855.01 182.449V200.141H846.13V149.815H846.125ZM872.486 168C872.486 164.994 872.099 162.606 871.323 160.845C870.546 159.083 869.525 157.814 868.256 157.038C866.987 156.261 865.601 155.874 864.098 155.874C861.043 155.874 858.752 156.909 857.227 158.975C855.699 161.043 854.936 163.698 854.936 166.94V168.985C854.936 172.509 855.652 175.294 857.085 177.337C858.518 179.382 860.739 180.404 863.745 180.404C866.328 180.404 868.432 179.452 870.054 177.549C871.674 175.645 872.486 172.464 872.486 167.997" fill="white"/>
<path d="M884.047 168.211C884.047 164.17 884.798 160.694 886.304 157.78C887.807 154.866 889.933 152.623 892.682 151.048C895.432 149.475 898.685 148.688 902.445 148.688C908.178 148.688 912.642 150.391 915.837 153.798C919.032 157.206 920.63 161.916 920.63 167.93C920.63 173.944 918.996 178.845 915.731 182.343C912.464 185.844 907.967 187.595 902.234 187.595C896.501 187.595 891.978 185.892 888.806 182.485C885.633 179.079 884.047 174.32 884.047 168.211ZM893.211 168.072C893.211 171.784 893.927 174.768 895.362 177.022C896.795 179.277 899.108 180.406 902.306 180.406C905.503 180.406 907.827 179.279 909.283 177.022C910.739 174.768 911.468 171.784 911.468 168.072C911.468 164.359 910.739 161.4 909.283 159.191C907.825 156.984 905.501 155.879 902.306 155.879C899.111 155.879 896.854 156.984 895.398 159.191C893.94 161.4 893.213 164.361 893.213 168.072" fill="white"/>
<path d="M924.152 149.815H932.822V154.961C935.546 151.109 939.047 149.181 943.325 149.181C943.982 149.181 944.605 149.205 945.192 149.25C945.779 149.298 946.308 149.367 946.778 149.462L945.721 157.285C944.686 157.004 943.581 156.862 942.409 156.862C941.237 156.862 940.118 157.038 939.061 157.391C938.003 157.744 937.004 158.32 936.066 159.119C935.126 159.87 934.385 160.788 933.845 161.868C933.305 162.951 933.035 164.242 933.035 165.745V186.468H924.155V149.815H924.152Z" fill="white"/>
<path d="M946.484 176.318C946.484 173.922 946.988 171.924 948.001 170.326C949.011 168.729 950.386 167.471 952.125 166.555C953.862 165.639 955.849 164.982 958.081 164.582C960.313 164.184 962.651 163.936 965.094 163.842L970.733 163.63V162.291C970.733 159.753 970.193 157.911 969.11 156.759C968.028 155.609 966.291 155.031 963.895 155.031C961.499 155.031 959.807 155.442 958.679 156.264C957.552 157.087 956.798 158.25 956.423 159.753L948.458 159.049C949.115 155.478 950.759 152.859 953.392 151.19C956.022 149.523 959.618 148.688 964.176 148.688C969.628 148.688 973.502 149.921 975.806 152.389C978.108 154.857 979.26 158.417 979.26 163.068V186.468H971.014V181.956C969.605 183.554 967.936 184.859 966.01 185.869C964.082 186.879 961.757 187.386 959.033 187.386C955.32 187.386 952.301 186.434 949.974 184.53C947.648 182.627 946.484 179.891 946.484 176.318ZM955.084 175.895C955.084 177.4 955.552 178.608 956.495 179.524C957.435 180.44 958.961 180.899 961.076 180.899C963.989 180.899 966.327 180.147 968.089 178.644C969.851 177.141 970.733 175.026 970.733 172.302V169.201L965.517 169.413C961.523 169.554 958.785 170.164 957.307 171.246C955.826 172.329 955.086 173.879 955.086 175.899" fill="white"/>
<path d="M986.823 173.78V156.792H981.043V149.815H986.823V139.946H995.704V149.815H1004.8V156.792H995.704V174.695C995.704 176.34 996.08 177.632 996.831 178.572C997.583 179.513 998.735 179.981 1000.28 179.981C1001.18 179.981 1001.98 179.911 1002.68 179.769C1003.39 179.627 1004.04 179.463 1004.65 179.276L1005.99 185.903C1004.82 186.278 1003.61 186.582 1002.36 186.818C1001.12 187.052 999.698 187.172 998.1 187.172C995.186 187.172 992.907 186.643 991.262 185.585C989.618 184.528 988.466 183.002 987.809 181.004C987.149 179.006 986.821 176.599 986.821 173.78" fill="white"/>
<path d="M1006.21 168.423C1006.21 164.193 1006.96 160.611 1008.46 157.674C1009.96 154.738 1012.06 152.506 1014.73 150.978C1017.41 149.453 1020.51 148.688 1024.04 148.688C1027.85 148.688 1030.99 149.453 1033.48 150.978C1035.97 152.506 1037.83 154.632 1039.05 157.357C1040.27 160.082 1040.89 163.254 1040.89 166.872V170.184H1014.95C1015.14 173.708 1015.98 176.388 1017.49 178.219C1018.99 180.051 1021.17 180.969 1024.04 180.969C1026.53 180.969 1028.39 180.498 1029.61 179.56C1030.83 178.62 1031.65 177.306 1032.08 175.614H1040.39C1039.78 179.373 1038.14 182.31 1035.46 184.425C1032.78 186.54 1029 187.597 1024.11 187.597C1018.38 187.597 1013.96 185.919 1010.86 182.557C1007.76 179.198 1006.21 174.486 1006.21 168.425M1030.38 157.569C1029.21 155.924 1027.09 155.103 1024.04 155.103C1020.99 155.103 1018.8 155.985 1017.49 157.746C1016.17 159.508 1015.35 161.823 1015.02 164.69H1032.36C1032.22 161.589 1031.56 159.216 1030.39 157.571" fill="white"/>
  </g>
</svg>
