<svg width="16" height="16" viewBox="244 668 16 16" fill="none" xmlns="http://www.w3.org/2000/svg">
  <path d="M256.124 681.333C256.065 681.102 255.945 680.892 255.776 680.723C255.608 680.555 255.397 680.435 255.166 680.375L251.076 679.321C251.007 679.301 250.945 679.259 250.901 679.201C250.858 679.143 250.834 679.072 250.834 679C250.834 678.927 250.858 678.857 250.901 678.799C250.945 678.741 251.007 678.699 251.076 678.679L255.166 677.624C255.397 677.564 255.607 677.444 255.776 677.276C255.944 677.108 256.065 676.897 256.124 676.667L257.179 672.577C257.199 672.506 257.241 672.445 257.299 672.401C257.356 672.357 257.427 672.333 257.5 672.333C257.573 672.333 257.643 672.357 257.701 672.401C257.759 672.445 257.801 672.506 257.821 672.577L258.875 676.667C258.934 676.897 259.055 677.108 259.223 677.276C259.392 677.445 259.602 677.565 259.833 677.625L263.923 678.679C263.993 678.698 264.055 678.74 264.1 678.798C264.144 678.856 264.168 678.927 264.168 679C264.168 679.073 264.144 679.144 264.1 679.202C264.055 679.26 263.993 679.302 263.923 679.321L259.833 680.375C259.602 680.435 259.392 680.555 259.223 680.723C259.055 680.892 258.934 681.102 258.875 681.333L257.82 685.423C257.801 685.493 257.759 685.555 257.701 685.599C257.643 685.643 257.572 685.667 257.499 685.667C257.427 685.667 257.356 685.643 257.298 685.599C257.24 685.555 257.198 685.493 257.178 685.423L256.124 681.333Z" stroke="#00382F" stroke-width="1.33333" stroke-linecap="round" stroke-linejoin="round"/>
  <path d="M262.834 673V675.667" stroke="#00382F" stroke-width="1.33333" stroke-linecap="round" stroke-linejoin="round"/>
  <path d="M264.167 674.333H261.5" stroke="#00382F" stroke-width="1.33333" stroke-linecap="round" stroke-linejoin="round"/>
  <path d="M252.166 682.333V683.667" stroke="#00382F" stroke-width="1.33333" stroke-linecap="round" stroke-linejoin="round"/>
  <path d="M252.833 683H251.5" stroke="#00382F" stroke-width="1.33333" stroke-linecap="round" stroke-linejoin="round"/>
</svg>
