<svg width="80" height="80" viewBox="0 0 80 80" fill="none" xmlns="http://www.w3.org/2000/svg">
<g opacity="0.995424">
<mask id="path-1-inside-1_569_2572" fill="white">
<path d="M0 40C0 17.9086 17.9086 0 40 0C62.0914 0 80 17.9086 80 40C80 62.0914 62.0914 80 40 80C17.9086 80 0 62.0914 0 40Z"/>
</mask>
<path d="M0 40C0 17.9086 17.9086 0 40 0C62.0914 0 80 17.9086 80 40C80 62.0914 62.0914 80 40 80C17.9086 80 0 62.0914 0 40Z" fill="#DBFF6D"/>
<path d="M40 80V76C20.1178 76 4 59.8823 4 40H0H-4C-4 64.3005 15.6995 84 40 84V80ZM80 40H76C76 59.8823 59.8823 76 40 76V80V84C64.3005 84 84 64.3005 84 40H80ZM40 0V4C59.8823 4 76 20.1178 76 40H80H84C84 15.6995 64.3005 -4 40 -4V0ZM40 0V-4C15.6995 -4 -4 15.6995 -4 40H0H4C4 20.1178 20.1178 4 40 4V0Z" fill="white" mask="url(#path-1-inside-1_569_2572)"/>
<path d="M39.9997 56.6654C49.2044 56.6654 56.6663 49.2034 56.6663 39.9987C56.6663 30.794 49.2044 23.332 39.9997 23.332C30.7949 23.332 23.333 30.794 23.333 39.9987C23.333 49.2034 30.7949 56.6654 39.9997 56.6654Z" fill="white" stroke="white" stroke-width="3.33333" stroke-linecap="round" stroke-linejoin="round"/>
</g>
</svg>
