<svg width="16.8" height="16.8" viewBox="1503.8 925.6 16.8 16.8" fill="none" xmlns="http://www.w3.org/2000/svg">
  <defs>
    <clipPath id="clip">
      <rect width="16.8" height="16.8" fill="white" transform="translate(1503.8 925.6)"/>
    </clipPath>
  </defs>
  <g clip-path="url(#clip)">
<path d="M1518.02 928.509C1516.95 928.017 1515.8 927.655 1514.6 927.448C1514.58 927.444 1514.56 927.454 1514.55 927.474C1514.4 927.737 1514.24 928.079 1514.12 928.349C1512.83 928.155 1511.55 928.155 1510.28 928.349C1510.17 928.073 1510 927.737 1509.85 927.474C1509.84 927.455 1509.82 927.445 1509.79 927.448C1508.59 927.655 1507.45 928.017 1506.37 928.509C1506.36 928.513 1506.36 928.519 1506.35 928.528C1504.17 931.782 1503.58 934.956 1503.87 938.09C1503.87 938.106 1503.88 938.12 1503.89 938.13C1505.33 939.185 1506.72 939.826 1508.09 940.25C1508.11 940.257 1508.13 940.249 1508.15 940.231C1508.47 939.79 1508.76 939.324 1509 938.835C1509.02 938.806 1509 938.772 1508.97 938.761C1508.52 938.588 1508.08 938.376 1507.66 938.136C1507.63 938.117 1507.63 938.07 1507.66 938.047C1507.75 937.981 1507.83 937.912 1507.92 937.843C1507.93 937.83 1507.95 937.828 1507.97 937.836C1510.72 939.091 1513.7 939.091 1516.42 937.836C1516.43 937.827 1516.45 937.83 1516.47 937.842C1516.55 937.912 1516.64 937.981 1516.73 938.047C1516.76 938.07 1516.76 938.117 1516.73 938.136C1516.31 938.381 1515.87 938.588 1515.42 938.76C1515.39 938.772 1515.37 938.806 1515.39 938.835C1515.64 939.324 1515.93 939.789 1516.25 940.23C1516.26 940.249 1516.28 940.257 1516.3 940.25C1517.68 939.826 1519.07 939.185 1520.51 938.13C1520.52 938.12 1520.53 938.106 1520.53 938.091C1520.88 934.467 1519.94 931.319 1518.04 928.529C1518.04 928.519 1518.03 928.513 1518.02 928.509ZM1509.41 936.182C1508.59 936.182 1507.9 935.422 1507.9 934.488C1507.9 933.555 1508.57 932.795 1509.41 932.795C1510.26 932.795 1510.94 933.562 1510.92 934.488C1510.92 935.422 1510.25 936.182 1509.41 936.182ZM1515 936.182C1514.17 936.182 1513.49 935.422 1513.49 934.488C1513.49 933.555 1514.16 932.795 1515 932.795C1515.84 932.795 1516.52 933.562 1516.51 934.488C1516.51 935.422 1515.84 936.182 1515 936.182Z" fill="white"/>
  </g>
</svg>
