<svg width="16.8" height="16.8" viewBox="1540.6 925.6 16.8 16.8" fill="none" xmlns="http://www.w3.org/2000/svg">
  <defs>
    <clipPath id="clip">
      <rect width="16.8" height="16.8" fill="white" transform="translate(1540.6 925.6)"/>
    </clipPath>
  </defs>
  <g clip-path="url(#clip)">
<path d="M1556.16 925.6H1541.84C1541.15 925.6 1540.6 926.141 1540.6 926.81V941.186C1540.6 941.855 1541.15 942.4 1541.84 942.4H1556.16C1556.84 942.4 1557.4 941.855 1557.4 941.189V926.81C1557.4 926.141 1556.84 925.6 1556.16 925.6ZM1545.58 939.916H1543.09V931.896H1545.58V939.916ZM1544.34 930.804C1543.54 930.804 1542.89 930.157 1542.89 929.36C1542.89 928.563 1543.54 927.916 1544.34 927.916C1545.13 927.916 1545.78 928.563 1545.78 929.36C1545.78 930.154 1545.13 930.804 1544.34 930.804ZM1554.92 939.916H1552.43V936.018C1552.43 935.089 1552.41 933.891 1551.13 933.891C1549.83 933.891 1549.64 934.905 1549.64 935.952V939.916H1547.15V931.896H1549.54V932.992H1549.57C1549.9 932.362 1550.72 931.696 1551.93 931.696C1554.45 931.696 1554.92 933.356 1554.92 935.516V939.916Z" fill="white"/>
  </g>
</svg>
